G04 #@! TF.FileFunction,Soldermask,Top*
%FSLAX46Y46*%
G04 Gerber Fmt 4.6, Leading zero omitted, Abs format (unit mm)*
G04 Created by KiCad (PCBNEW 4.0.5) date Thursday, 11 May 2017 'PMt' 15:34:45*
%MOMM*%
%LPD*%
G01*
G04 APERTURE LIST*
%ADD10C,0.100000*%
%ADD11R,2.000000X2.000000*%
%ADD12O,2.000000X2.000000*%
%ADD13R,1.500000X1.050000*%
%ADD14R,1.050000X1.500000*%
%ADD15R,1.800000X1.550000*%
%ADD16R,1.200000X1.500000*%
%ADD17R,0.700000X1.400000*%
%ADD18R,1.400000X0.550000*%
%ADD19R,4.100000X2.300000*%
%ADD20R,1.800000X2.300000*%
%ADD21O,1.824000X2.840000*%
%ADD22C,4.237000*%
%ADD23C,1.824000*%
G04 APERTURE END LIST*
D10*
D11*
X180340000Y-83820000D03*
D12*
X180340000Y-86360000D03*
X180340000Y-88900000D03*
X180340000Y-91440000D03*
X180340000Y-93980000D03*
X180340000Y-96520000D03*
X180340000Y-99060000D03*
X180340000Y-101600000D03*
X180340000Y-104140000D03*
X180340000Y-106680000D03*
X180340000Y-109220000D03*
X180340000Y-111760000D03*
X180340000Y-114300000D03*
X180340000Y-116840000D03*
X180340000Y-119380000D03*
X180340000Y-121920000D03*
D13*
X155000000Y-84100000D03*
X156900000Y-84100000D03*
X155021200Y-94183200D03*
X156921200Y-94183200D03*
X155021200Y-104394000D03*
X156921200Y-104394000D03*
X155000000Y-114600000D03*
X156900000Y-114600000D03*
X155000000Y-86500000D03*
X156900000Y-86500000D03*
X155021200Y-96520000D03*
X156921200Y-96520000D03*
X155000000Y-106680000D03*
X156900000Y-106680000D03*
X155000000Y-117200000D03*
X156900000Y-117200000D03*
X138400000Y-124000000D03*
X136500000Y-124000000D03*
X155021200Y-89204800D03*
X156921200Y-89204800D03*
X155000000Y-99314000D03*
X156900000Y-99314000D03*
X155000000Y-109474000D03*
X156900000Y-109474000D03*
X155000000Y-119684800D03*
X156900000Y-119684800D03*
D14*
X123900000Y-115400000D03*
X123900000Y-117300000D03*
D13*
X155021200Y-91846400D03*
X156921200Y-91846400D03*
X155021200Y-101904800D03*
X156921200Y-101904800D03*
X155021200Y-112200000D03*
X156921200Y-112200000D03*
X155000000Y-122200000D03*
X156900000Y-122200000D03*
D14*
X135830000Y-114240000D03*
X135830000Y-116140000D03*
X137830000Y-114240000D03*
X137830000Y-116140000D03*
X139830000Y-114200000D03*
X139830000Y-116100000D03*
D15*
X130530000Y-112540000D03*
X133030000Y-112540000D03*
D11*
X175260000Y-83820000D03*
D12*
X175260000Y-86360000D03*
X175260000Y-88900000D03*
X175260000Y-91440000D03*
X175260000Y-93980000D03*
X175260000Y-96520000D03*
X175260000Y-99060000D03*
X175260000Y-101600000D03*
X175260000Y-104140000D03*
X175260000Y-106680000D03*
X175260000Y-109220000D03*
X175260000Y-111760000D03*
X175260000Y-114300000D03*
X175260000Y-116840000D03*
X175260000Y-119380000D03*
X175260000Y-121920000D03*
D16*
X147200000Y-86000000D03*
X147200000Y-83800000D03*
X147200000Y-96600000D03*
X147200000Y-94400000D03*
X150000000Y-106600000D03*
X150000000Y-104400000D03*
X150000000Y-116800000D03*
X150000000Y-114600000D03*
X150000000Y-86000000D03*
X150000000Y-83800000D03*
X150000000Y-96600000D03*
X150000000Y-94400000D03*
X147200000Y-106600000D03*
X147200000Y-104400000D03*
X147400000Y-116800000D03*
X147400000Y-114600000D03*
X147200000Y-91200000D03*
X147200000Y-89000000D03*
X147200000Y-101260000D03*
X147200000Y-99060000D03*
X150000000Y-111700000D03*
X150000000Y-109500000D03*
X150000000Y-121900000D03*
X150000000Y-119700000D03*
X150000000Y-91200000D03*
X150000000Y-89000000D03*
X150000000Y-101260000D03*
X150000000Y-99060000D03*
X147400000Y-111700000D03*
X147400000Y-109500000D03*
X147400000Y-121900000D03*
X147400000Y-119700000D03*
D17*
X141200000Y-99000000D03*
X140550000Y-99000000D03*
X139900000Y-99000000D03*
X139250000Y-99000000D03*
X138600000Y-99000000D03*
X137950000Y-99000000D03*
X137300000Y-99000000D03*
X136650000Y-99000000D03*
X136000000Y-99000000D03*
X135350000Y-99000000D03*
X134700000Y-99000000D03*
X134050000Y-99000000D03*
X134050000Y-104700000D03*
X134700000Y-104700000D03*
X135350000Y-104700000D03*
X136000000Y-104700000D03*
X136650000Y-104700000D03*
X137300000Y-104700000D03*
X137950000Y-104700000D03*
X138600000Y-104700000D03*
X139250000Y-104700000D03*
X139900000Y-104700000D03*
X140550000Y-104700000D03*
X141200000Y-104700000D03*
D18*
X163340000Y-84090000D03*
X163340000Y-84590000D03*
X163340000Y-85090000D03*
X163340000Y-85590000D03*
X163340000Y-86090000D03*
X167640000Y-86090000D03*
X167640000Y-85590000D03*
X167640000Y-85090000D03*
X167640000Y-84590000D03*
X167640000Y-84090000D03*
X163340000Y-94250000D03*
X163340000Y-94750000D03*
X163340000Y-95250000D03*
X163340000Y-95750000D03*
X163340000Y-96250000D03*
X167640000Y-96250000D03*
X167640000Y-95750000D03*
X167640000Y-95250000D03*
X167640000Y-94750000D03*
X167640000Y-94250000D03*
X163340000Y-104410000D03*
X163340000Y-104910000D03*
X163340000Y-105410000D03*
X163340000Y-105910000D03*
X163340000Y-106410000D03*
X167640000Y-106410000D03*
X167640000Y-105910000D03*
X167640000Y-105410000D03*
X167640000Y-104910000D03*
X167640000Y-104410000D03*
X163340000Y-114570000D03*
X163340000Y-115070000D03*
X163340000Y-115570000D03*
X163340000Y-116070000D03*
X163340000Y-116570000D03*
X167640000Y-116570000D03*
X167640000Y-116070000D03*
X167640000Y-115570000D03*
X167640000Y-115070000D03*
X167640000Y-114570000D03*
D19*
X128650000Y-115840000D03*
D20*
X128650000Y-122140000D03*
X130950000Y-122140000D03*
X126350000Y-122140000D03*
D18*
X163340000Y-89170000D03*
X163340000Y-89670000D03*
X163340000Y-90170000D03*
X163340000Y-90670000D03*
X163340000Y-91170000D03*
X167640000Y-91170000D03*
X167640000Y-90670000D03*
X167640000Y-90170000D03*
X167640000Y-89670000D03*
X167640000Y-89170000D03*
X163340000Y-99330000D03*
X163340000Y-99830000D03*
X163340000Y-100330000D03*
X163340000Y-100830000D03*
X163340000Y-101330000D03*
X167640000Y-101330000D03*
X167640000Y-100830000D03*
X167640000Y-100330000D03*
X167640000Y-99830000D03*
X167640000Y-99330000D03*
X163340000Y-109490000D03*
X163340000Y-109990000D03*
X163340000Y-110490000D03*
X163340000Y-110990000D03*
X163340000Y-111490000D03*
X167640000Y-111490000D03*
X167640000Y-110990000D03*
X167640000Y-110490000D03*
X167640000Y-109990000D03*
X167640000Y-109490000D03*
X163365400Y-119650000D03*
X163365400Y-120150000D03*
X163365400Y-120650000D03*
X163365400Y-121150000D03*
X163365400Y-121650000D03*
X167665400Y-121650000D03*
X167665400Y-121150000D03*
X167665400Y-120650000D03*
X167665400Y-120150000D03*
X167665400Y-119650000D03*
D21*
X161285000Y-78750000D03*
X163825000Y-78750000D03*
X166365000Y-78750000D03*
X168905000Y-78750000D03*
X171445000Y-78750000D03*
X173985000Y-78750000D03*
X176525000Y-78750000D03*
X179065000Y-78750000D03*
X184145000Y-127010000D03*
X181605000Y-127010000D03*
X179065000Y-127010000D03*
X176525000Y-127010000D03*
X166365000Y-127010000D03*
X161285000Y-127010000D03*
X158745000Y-127010000D03*
X168905000Y-127010000D03*
X171445000Y-127010000D03*
X173985000Y-127010000D03*
X156205000Y-127010000D03*
X153665000Y-127010000D03*
X151125000Y-127010000D03*
X143505000Y-127010000D03*
X146045000Y-127010000D03*
X148585000Y-127010000D03*
X138425000Y-127010000D03*
X135885000Y-127010000D03*
X133345000Y-127010000D03*
X128265000Y-127010000D03*
X125725000Y-127010000D03*
X156205000Y-78750000D03*
X153665000Y-78750000D03*
X151125000Y-78750000D03*
X148585000Y-78750000D03*
X146045000Y-78750000D03*
X143505000Y-78750000D03*
X140965000Y-78750000D03*
X138425000Y-78750000D03*
X134361000Y-78750000D03*
X131821000Y-78750000D03*
X129281000Y-78750000D03*
X126741000Y-78750000D03*
X124201000Y-78750000D03*
X121661000Y-78750000D03*
X119121000Y-78750000D03*
X116581000Y-78750000D03*
X130805000Y-127010000D03*
D22*
X189225000Y-127010000D03*
X182875000Y-78750000D03*
X107945000Y-78750000D03*
X106675000Y-127010000D03*
D23*
X186685000Y-81290000D03*
X189225000Y-81290000D03*
X186685000Y-83830000D03*
X189225000Y-83830000D03*
X186685000Y-86370000D03*
X189225000Y-86370000D03*
X186685000Y-88910000D03*
X189225000Y-88910000D03*
X186685000Y-78750000D03*
X189225000Y-78750000D03*
X189225000Y-91450000D03*
X186685000Y-91450000D03*
X186685000Y-93990000D03*
X189225000Y-93990000D03*
X186685000Y-96530000D03*
X189225000Y-96530000D03*
X186685000Y-99070000D03*
X189225000Y-99070000D03*
X186685000Y-101610000D03*
X189225000Y-101610000D03*
X186685000Y-104150000D03*
X189225000Y-104150000D03*
X186685000Y-106690000D03*
X189225000Y-106690000D03*
X186685000Y-109230000D03*
X189225000Y-109230000D03*
X186685000Y-111770000D03*
X189225000Y-111770000D03*
X186685000Y-114310000D03*
X189225000Y-114310000D03*
X186685000Y-116850000D03*
X189225000Y-116850000D03*
X186685000Y-119390000D03*
X189225000Y-119390000D03*
X186685000Y-121930000D03*
X189225000Y-121930000D03*
M02*
