G04 #@! TF.FileFunction,Copper,L3,Inr,Signal*
%FSLAX46Y46*%
G04 Gerber Fmt 4.6, Leading zero omitted, Abs format (unit mm)*
G04 Created by KiCad (PCBNEW 4.0.5) date Thursday, 11 May 2017 'PMt' 15:34:45*
%MOMM*%
%LPD*%
G01*
G04 APERTURE LIST*
%ADD10C,0.100000*%
%ADD11R,1.700000X1.700000*%
%ADD12O,1.700000X1.700000*%
%ADD13C,0.600000*%
%ADD14O,1.524000X2.540000*%
%ADD15C,3.937000*%
%ADD16C,1.524000*%
%ADD17C,0.550000*%
%ADD18C,0.250000*%
%ADD19C,0.400000*%
%ADD20C,0.200000*%
G04 APERTURE END LIST*
D10*
D11*
X180340000Y-83820000D03*
D12*
X180340000Y-86360000D03*
X180340000Y-88900000D03*
X180340000Y-91440000D03*
X180340000Y-93980000D03*
X180340000Y-96520000D03*
X180340000Y-99060000D03*
X180340000Y-101600000D03*
X180340000Y-104140000D03*
X180340000Y-106680000D03*
X180340000Y-109220000D03*
X180340000Y-111760000D03*
X180340000Y-114300000D03*
X180340000Y-116840000D03*
X180340000Y-119380000D03*
X180340000Y-121920000D03*
D11*
X175260000Y-83820000D03*
D12*
X175260000Y-86360000D03*
X175260000Y-88900000D03*
X175260000Y-91440000D03*
X175260000Y-93980000D03*
X175260000Y-96520000D03*
X175260000Y-99060000D03*
X175260000Y-101600000D03*
X175260000Y-104140000D03*
X175260000Y-106680000D03*
X175260000Y-109220000D03*
X175260000Y-111760000D03*
X175260000Y-114300000D03*
X175260000Y-116840000D03*
X175260000Y-119380000D03*
X175260000Y-121920000D03*
D13*
X101600000Y-101600000D03*
X116840000Y-101600000D03*
X101600000Y-88900000D03*
X116840000Y-88900000D03*
X101600000Y-114300000D03*
X116840000Y-114300000D03*
X158750000Y-78740000D03*
X123825000Y-120015000D03*
X139700000Y-121285000D03*
X136525000Y-81915000D03*
X142240000Y-100965000D03*
X133350000Y-97790000D03*
X133985000Y-115570000D03*
D14*
X161285000Y-78750000D03*
X163825000Y-78750000D03*
X166365000Y-78750000D03*
X168905000Y-78750000D03*
X171445000Y-78750000D03*
X173985000Y-78750000D03*
X176525000Y-78750000D03*
X179065000Y-78750000D03*
X184145000Y-127010000D03*
X181605000Y-127010000D03*
X179065000Y-127010000D03*
X176525000Y-127010000D03*
X166365000Y-127010000D03*
X161285000Y-127010000D03*
X158745000Y-127010000D03*
X168905000Y-127010000D03*
X171445000Y-127010000D03*
X173985000Y-127010000D03*
X156205000Y-127010000D03*
X153665000Y-127010000D03*
X151125000Y-127010000D03*
X143505000Y-127010000D03*
X146045000Y-127010000D03*
X148585000Y-127010000D03*
X138425000Y-127010000D03*
X135885000Y-127010000D03*
X133345000Y-127010000D03*
X128265000Y-127010000D03*
X125725000Y-127010000D03*
X156205000Y-78750000D03*
X153665000Y-78750000D03*
X151125000Y-78750000D03*
X148585000Y-78750000D03*
X146045000Y-78750000D03*
X143505000Y-78750000D03*
X140965000Y-78750000D03*
X138425000Y-78750000D03*
X134361000Y-78750000D03*
X131821000Y-78750000D03*
X129281000Y-78750000D03*
X126741000Y-78750000D03*
X124201000Y-78750000D03*
X121661000Y-78750000D03*
X119121000Y-78750000D03*
X116581000Y-78750000D03*
X130805000Y-127010000D03*
D15*
X189225000Y-127010000D03*
X182875000Y-78750000D03*
X107945000Y-78750000D03*
X106675000Y-127010000D03*
D16*
X186685000Y-81290000D03*
X189225000Y-81290000D03*
X186685000Y-83830000D03*
X189225000Y-83830000D03*
X186685000Y-86370000D03*
X189225000Y-86370000D03*
X186685000Y-88910000D03*
X189225000Y-88910000D03*
X186685000Y-78750000D03*
X189225000Y-78750000D03*
X189225000Y-91450000D03*
X186685000Y-91450000D03*
X186685000Y-93990000D03*
X189225000Y-93990000D03*
X186685000Y-96530000D03*
X189225000Y-96530000D03*
X186685000Y-99070000D03*
X189225000Y-99070000D03*
X186685000Y-101610000D03*
X189225000Y-101610000D03*
X186685000Y-104150000D03*
X189225000Y-104150000D03*
X186685000Y-106690000D03*
X189225000Y-106690000D03*
X186685000Y-109230000D03*
X189225000Y-109230000D03*
X186685000Y-111770000D03*
X189225000Y-111770000D03*
X186685000Y-114310000D03*
X189225000Y-114310000D03*
X186685000Y-116850000D03*
X189225000Y-116850000D03*
X186685000Y-119390000D03*
X189225000Y-119390000D03*
X186685000Y-121930000D03*
X189225000Y-121930000D03*
D17*
X139280900Y-100596700D03*
X139827000Y-102362000D03*
X140716000Y-101600000D03*
D13*
X130556000Y-111252000D03*
D17*
X141224000Y-106172000D03*
D13*
X139700000Y-87884000D03*
X153924000Y-103124000D03*
X145796000Y-91440000D03*
X151130000Y-102870000D03*
X146050000Y-97155000D03*
X146050000Y-101600000D03*
X146050000Y-107315000D03*
X143510000Y-113665000D03*
X146050000Y-110490000D03*
X146050000Y-116840000D03*
X143510000Y-116840000D03*
D17*
X160528000Y-93062900D03*
X166478624Y-118636376D03*
X155575000Y-118618000D03*
X166478624Y-113556376D03*
X155575000Y-113411000D03*
X166116000Y-108204000D03*
X155575000Y-107950000D03*
X166243000Y-103124000D03*
X156210000Y-103124000D03*
X166243000Y-98298000D03*
X155946000Y-97790000D03*
X166008145Y-93299300D03*
D13*
X154940000Y-87503000D03*
D17*
X165354000Y-88011000D03*
D13*
X170200000Y-121700000D03*
X170200000Y-119650000D03*
X170200000Y-86100000D03*
X170200000Y-91150000D03*
X170200000Y-89150000D03*
X170200000Y-96200000D03*
X170200000Y-94200000D03*
X170200000Y-99350000D03*
X170200000Y-101300000D03*
X170200000Y-106400000D03*
X170200000Y-104400000D03*
X170200000Y-111450000D03*
X170200000Y-109450000D03*
X170200000Y-114550000D03*
X170200000Y-116550000D03*
X170200000Y-84050000D03*
X170200000Y-124050000D03*
X145350000Y-123550000D03*
X142400000Y-118000000D03*
D17*
X153543000Y-104140000D03*
D13*
X158496000Y-87122000D03*
X153162000Y-89027000D03*
D17*
X153416000Y-94312900D03*
D13*
X159004000Y-96520000D03*
X154152600Y-98044000D03*
X158572200Y-101892100D03*
X158343600Y-106667300D03*
X152539700Y-108280200D03*
X158457900Y-112179100D03*
X153530300Y-113982500D03*
D17*
X158252000Y-117182900D03*
D13*
X153619200Y-118643400D03*
X158597600Y-122199400D03*
D17*
X161544000Y-85831000D03*
X161250000Y-90800000D03*
X161200000Y-96000000D03*
X161450000Y-100955000D03*
X161400000Y-106035000D03*
X161100000Y-111150000D03*
X161150000Y-116350000D03*
X161200000Y-121400000D03*
X163365400Y-122534900D03*
X163340000Y-117366000D03*
X163340000Y-112222500D03*
X163340000Y-107117100D03*
X163340000Y-102100600D03*
X163340000Y-96880900D03*
X163478192Y-92231192D03*
X163340000Y-86847900D03*
D18*
X139827000Y-102362000D02*
X140126999Y-102661999D01*
X140126999Y-102661999D02*
X142854401Y-102661999D01*
X142854401Y-102661999D02*
X143649700Y-101866700D01*
X177990500Y-82296000D02*
X179070000Y-81216500D01*
X179070000Y-81216500D02*
X179070000Y-78740000D01*
X170446700Y-82296000D02*
X177990500Y-82296000D01*
X167500300Y-85242400D02*
X170446700Y-82296000D01*
X167500300Y-89408000D02*
X167500300Y-85242400D01*
X163220400Y-93687900D02*
X167500300Y-89408000D01*
X146240500Y-93687900D02*
X163220400Y-93687900D01*
X143649700Y-96278700D02*
X146240500Y-93687900D01*
X143649700Y-101866700D02*
X143649700Y-96278700D01*
X140716000Y-99949000D02*
X140335000Y-99568000D01*
X140335000Y-99568000D02*
X140335000Y-97826002D01*
X140716000Y-101600000D02*
X140716000Y-99949000D01*
X176530000Y-78740000D02*
X176530000Y-81153000D01*
X176530000Y-81153000D02*
X176072800Y-81610200D01*
X176072800Y-81610200D02*
X169976800Y-81610200D01*
X145730402Y-92430600D02*
X140335000Y-97826002D01*
X169976800Y-81610200D02*
X166293800Y-85293200D01*
X166293800Y-85293200D02*
X166293800Y-88531700D01*
X166293800Y-88531700D02*
X162394900Y-92430600D01*
X162394900Y-92430600D02*
X145730402Y-92430600D01*
D19*
X132080000Y-106680000D02*
X130556000Y-108204000D01*
X130556000Y-108204000D02*
X130556000Y-111252000D01*
X140716000Y-106680000D02*
X132080000Y-106680000D01*
X141224000Y-106172000D02*
X140716000Y-106680000D01*
D20*
X154940000Y-87503000D02*
X155448000Y-88011000D01*
X155448000Y-88011000D02*
X165354000Y-88011000D01*
X155575000Y-118618000D02*
X166478624Y-118636376D01*
X166497000Y-118618000D02*
X166478624Y-118636376D01*
X166370000Y-113411000D02*
X166478624Y-113519624D01*
X166478624Y-113519624D02*
X166478624Y-113556376D01*
X155575000Y-113411000D02*
X166370000Y-113411000D01*
X165862000Y-107950000D02*
X166116000Y-108204000D01*
X155575000Y-107950000D02*
X165862000Y-107950000D01*
X156210000Y-103124000D02*
X166243000Y-103124000D01*
X155946000Y-97790000D02*
X165735000Y-97790000D01*
X165735000Y-97790000D02*
X166243000Y-98298000D01*
M02*
