G04 #@! TF.FileFunction,Other,Fab,Top*
%FSLAX46Y46*%
G04 Gerber Fmt 4.6, Leading zero omitted, Abs format (unit mm)*
G04 Created by KiCad (PCBNEW 4.0.5) date Thursday, 11 May 2017 'PMt' 15:34:45*
%MOMM*%
%LPD*%
G01*
G04 APERTURE LIST*
%ADD10C,0.100000*%
%ADD11C,0.150000*%
%ADD12C,0.075000*%
%ADD13C,0.120000*%
G04 APERTURE END LIST*
D10*
X179070000Y-82550000D02*
X179070000Y-123190000D01*
X179070000Y-123190000D02*
X181610000Y-123190000D01*
X181610000Y-123190000D02*
X181610000Y-82550000D01*
X181610000Y-82550000D02*
X179070000Y-82550000D01*
X155150000Y-84500000D02*
X155150000Y-83700000D01*
X156750000Y-84500000D02*
X155150000Y-84500000D01*
X156750000Y-83700000D02*
X156750000Y-84500000D01*
X155150000Y-83700000D02*
X156750000Y-83700000D01*
X155171200Y-94583200D02*
X155171200Y-93783200D01*
X156771200Y-94583200D02*
X155171200Y-94583200D01*
X156771200Y-93783200D02*
X156771200Y-94583200D01*
X155171200Y-93783200D02*
X156771200Y-93783200D01*
X155171200Y-104794000D02*
X155171200Y-103994000D01*
X156771200Y-104794000D02*
X155171200Y-104794000D01*
X156771200Y-103994000D02*
X156771200Y-104794000D01*
X155171200Y-103994000D02*
X156771200Y-103994000D01*
X155150000Y-115000000D02*
X155150000Y-114200000D01*
X156750000Y-115000000D02*
X155150000Y-115000000D01*
X156750000Y-114200000D02*
X156750000Y-115000000D01*
X155150000Y-114200000D02*
X156750000Y-114200000D01*
X155150000Y-86900000D02*
X155150000Y-86100000D01*
X156750000Y-86900000D02*
X155150000Y-86900000D01*
X156750000Y-86100000D02*
X156750000Y-86900000D01*
X155150000Y-86100000D02*
X156750000Y-86100000D01*
X155171200Y-96920000D02*
X155171200Y-96120000D01*
X156771200Y-96920000D02*
X155171200Y-96920000D01*
X156771200Y-96120000D02*
X156771200Y-96920000D01*
X155171200Y-96120000D02*
X156771200Y-96120000D01*
X155150000Y-107080000D02*
X155150000Y-106280000D01*
X156750000Y-107080000D02*
X155150000Y-107080000D01*
X156750000Y-106280000D02*
X156750000Y-107080000D01*
X155150000Y-106280000D02*
X156750000Y-106280000D01*
X155150000Y-117600000D02*
X155150000Y-116800000D01*
X156750000Y-117600000D02*
X155150000Y-117600000D01*
X156750000Y-116800000D02*
X156750000Y-117600000D01*
X155150000Y-116800000D02*
X156750000Y-116800000D01*
X138250000Y-123600000D02*
X138250000Y-124400000D01*
X136650000Y-123600000D02*
X138250000Y-123600000D01*
X136650000Y-124400000D02*
X136650000Y-123600000D01*
X138250000Y-124400000D02*
X136650000Y-124400000D01*
X155171200Y-89604800D02*
X155171200Y-88804800D01*
X156771200Y-89604800D02*
X155171200Y-89604800D01*
X156771200Y-88804800D02*
X156771200Y-89604800D01*
X155171200Y-88804800D02*
X156771200Y-88804800D01*
X155150000Y-99714000D02*
X155150000Y-98914000D01*
X156750000Y-99714000D02*
X155150000Y-99714000D01*
X156750000Y-98914000D02*
X156750000Y-99714000D01*
X155150000Y-98914000D02*
X156750000Y-98914000D01*
X155150000Y-109874000D02*
X155150000Y-109074000D01*
X156750000Y-109874000D02*
X155150000Y-109874000D01*
X156750000Y-109074000D02*
X156750000Y-109874000D01*
X155150000Y-109074000D02*
X156750000Y-109074000D01*
X155150000Y-120084800D02*
X155150000Y-119284800D01*
X156750000Y-120084800D02*
X155150000Y-120084800D01*
X156750000Y-119284800D02*
X156750000Y-120084800D01*
X155150000Y-119284800D02*
X156750000Y-119284800D01*
X123500000Y-115550000D02*
X124300000Y-115550000D01*
X123500000Y-117150000D02*
X123500000Y-115550000D01*
X124300000Y-117150000D02*
X123500000Y-117150000D01*
X124300000Y-115550000D02*
X124300000Y-117150000D01*
X155171200Y-92246400D02*
X155171200Y-91446400D01*
X156771200Y-92246400D02*
X155171200Y-92246400D01*
X156771200Y-91446400D02*
X156771200Y-92246400D01*
X155171200Y-91446400D02*
X156771200Y-91446400D01*
X155171200Y-102304800D02*
X155171200Y-101504800D01*
X156771200Y-102304800D02*
X155171200Y-102304800D01*
X156771200Y-101504800D02*
X156771200Y-102304800D01*
X155171200Y-101504800D02*
X156771200Y-101504800D01*
X155171200Y-112600000D02*
X155171200Y-111800000D01*
X156771200Y-112600000D02*
X155171200Y-112600000D01*
X156771200Y-111800000D02*
X156771200Y-112600000D01*
X155171200Y-111800000D02*
X156771200Y-111800000D01*
X155150000Y-122600000D02*
X155150000Y-121800000D01*
X156750000Y-122600000D02*
X155150000Y-122600000D01*
X156750000Y-121800000D02*
X156750000Y-122600000D01*
X155150000Y-121800000D02*
X156750000Y-121800000D01*
X135430000Y-114390000D02*
X136230000Y-114390000D01*
X135430000Y-115990000D02*
X135430000Y-114390000D01*
X136230000Y-115990000D02*
X135430000Y-115990000D01*
X136230000Y-114390000D02*
X136230000Y-115990000D01*
X137430000Y-114390000D02*
X138230000Y-114390000D01*
X137430000Y-115990000D02*
X137430000Y-114390000D01*
X138230000Y-115990000D02*
X137430000Y-115990000D01*
X138230000Y-114390000D02*
X138230000Y-115990000D01*
X139430000Y-114350000D02*
X140230000Y-114350000D01*
X139430000Y-115950000D02*
X139430000Y-114350000D01*
X140230000Y-115950000D02*
X139430000Y-115950000D01*
X140230000Y-114350000D02*
X140230000Y-115950000D01*
X130780000Y-113160000D02*
X130780000Y-111920000D01*
X132780000Y-113160000D02*
X130780000Y-113160000D01*
X132780000Y-111920000D02*
X132780000Y-113160000D01*
X130780000Y-111920000D02*
X132780000Y-111920000D01*
X173990000Y-82550000D02*
X173990000Y-123190000D01*
X173990000Y-123190000D02*
X176530000Y-123190000D01*
X176530000Y-123190000D02*
X176530000Y-82550000D01*
X176530000Y-82550000D02*
X173990000Y-82550000D01*
X147600000Y-85700000D02*
X146800000Y-85700000D01*
X147600000Y-84100000D02*
X147600000Y-85700000D01*
X146800000Y-84100000D02*
X147600000Y-84100000D01*
X146800000Y-85700000D02*
X146800000Y-84100000D01*
X147600000Y-96300000D02*
X146800000Y-96300000D01*
X147600000Y-94700000D02*
X147600000Y-96300000D01*
X146800000Y-94700000D02*
X147600000Y-94700000D01*
X146800000Y-96300000D02*
X146800000Y-94700000D01*
X150400000Y-106300000D02*
X149600000Y-106300000D01*
X150400000Y-104700000D02*
X150400000Y-106300000D01*
X149600000Y-104700000D02*
X150400000Y-104700000D01*
X149600000Y-106300000D02*
X149600000Y-104700000D01*
X150400000Y-116500000D02*
X149600000Y-116500000D01*
X150400000Y-114900000D02*
X150400000Y-116500000D01*
X149600000Y-114900000D02*
X150400000Y-114900000D01*
X149600000Y-116500000D02*
X149600000Y-114900000D01*
X150400000Y-85700000D02*
X149600000Y-85700000D01*
X150400000Y-84100000D02*
X150400000Y-85700000D01*
X149600000Y-84100000D02*
X150400000Y-84100000D01*
X149600000Y-85700000D02*
X149600000Y-84100000D01*
X150400000Y-96300000D02*
X149600000Y-96300000D01*
X150400000Y-94700000D02*
X150400000Y-96300000D01*
X149600000Y-94700000D02*
X150400000Y-94700000D01*
X149600000Y-96300000D02*
X149600000Y-94700000D01*
X147600000Y-106300000D02*
X146800000Y-106300000D01*
X147600000Y-104700000D02*
X147600000Y-106300000D01*
X146800000Y-104700000D02*
X147600000Y-104700000D01*
X146800000Y-106300000D02*
X146800000Y-104700000D01*
X147800000Y-116500000D02*
X147000000Y-116500000D01*
X147800000Y-114900000D02*
X147800000Y-116500000D01*
X147000000Y-114900000D02*
X147800000Y-114900000D01*
X147000000Y-116500000D02*
X147000000Y-114900000D01*
X147600000Y-90900000D02*
X146800000Y-90900000D01*
X147600000Y-89300000D02*
X147600000Y-90900000D01*
X146800000Y-89300000D02*
X147600000Y-89300000D01*
X146800000Y-90900000D02*
X146800000Y-89300000D01*
X147600000Y-100960000D02*
X146800000Y-100960000D01*
X147600000Y-99360000D02*
X147600000Y-100960000D01*
X146800000Y-99360000D02*
X147600000Y-99360000D01*
X146800000Y-100960000D02*
X146800000Y-99360000D01*
X150400000Y-111400000D02*
X149600000Y-111400000D01*
X150400000Y-109800000D02*
X150400000Y-111400000D01*
X149600000Y-109800000D02*
X150400000Y-109800000D01*
X149600000Y-111400000D02*
X149600000Y-109800000D01*
X150400000Y-121600000D02*
X149600000Y-121600000D01*
X150400000Y-120000000D02*
X150400000Y-121600000D01*
X149600000Y-120000000D02*
X150400000Y-120000000D01*
X149600000Y-121600000D02*
X149600000Y-120000000D01*
X150400000Y-90900000D02*
X149600000Y-90900000D01*
X150400000Y-89300000D02*
X150400000Y-90900000D01*
X149600000Y-89300000D02*
X150400000Y-89300000D01*
X149600000Y-90900000D02*
X149600000Y-89300000D01*
X150400000Y-100960000D02*
X149600000Y-100960000D01*
X150400000Y-99360000D02*
X150400000Y-100960000D01*
X149600000Y-99360000D02*
X150400000Y-99360000D01*
X149600000Y-100960000D02*
X149600000Y-99360000D01*
X147800000Y-111400000D02*
X147000000Y-111400000D01*
X147800000Y-109800000D02*
X147800000Y-111400000D01*
X147000000Y-109800000D02*
X147800000Y-109800000D01*
X147000000Y-111400000D02*
X147000000Y-109800000D01*
X147800000Y-121600000D02*
X147000000Y-121600000D01*
X147800000Y-120000000D02*
X147800000Y-121600000D01*
X147000000Y-120000000D02*
X147800000Y-120000000D01*
X147000000Y-121600000D02*
X147000000Y-120000000D01*
D11*
X141525000Y-100650000D02*
X141525000Y-104050000D01*
X141525000Y-104050000D02*
X133725000Y-104050000D01*
X133725000Y-104050000D02*
X133725000Y-99650000D01*
X133725000Y-99650000D02*
X140525000Y-99650000D01*
X140525000Y-99650000D02*
X141525000Y-100650000D01*
X164990000Y-83590000D02*
X166990000Y-83590000D01*
X166990000Y-83590000D02*
X166990000Y-86590000D01*
X166990000Y-86590000D02*
X163990000Y-86590000D01*
X163990000Y-86590000D02*
X163990000Y-84590000D01*
X163990000Y-84590000D02*
X164990000Y-83590000D01*
X164990000Y-93750000D02*
X166990000Y-93750000D01*
X166990000Y-93750000D02*
X166990000Y-96750000D01*
X166990000Y-96750000D02*
X163990000Y-96750000D01*
X163990000Y-96750000D02*
X163990000Y-94750000D01*
X163990000Y-94750000D02*
X164990000Y-93750000D01*
X164990000Y-103910000D02*
X166990000Y-103910000D01*
X166990000Y-103910000D02*
X166990000Y-106910000D01*
X166990000Y-106910000D02*
X163990000Y-106910000D01*
X163990000Y-106910000D02*
X163990000Y-104910000D01*
X163990000Y-104910000D02*
X164990000Y-103910000D01*
X164990000Y-114070000D02*
X166990000Y-114070000D01*
X166990000Y-114070000D02*
X166990000Y-117070000D01*
X166990000Y-117070000D02*
X163990000Y-117070000D01*
X163990000Y-117070000D02*
X163990000Y-115070000D01*
X163990000Y-115070000D02*
X164990000Y-114070000D01*
D10*
X126350000Y-120840000D02*
X125300000Y-119790000D01*
X126350000Y-120840000D02*
X132000000Y-120840000D01*
X125300000Y-119790000D02*
X125300000Y-117140000D01*
X132000000Y-120840000D02*
X132000000Y-117140000D01*
X125300000Y-117140000D02*
X132000000Y-117140000D01*
D11*
X164990000Y-88670000D02*
X166990000Y-88670000D01*
X166990000Y-88670000D02*
X166990000Y-91670000D01*
X166990000Y-91670000D02*
X163990000Y-91670000D01*
X163990000Y-91670000D02*
X163990000Y-89670000D01*
X163990000Y-89670000D02*
X164990000Y-88670000D01*
X164990000Y-98830000D02*
X166990000Y-98830000D01*
X166990000Y-98830000D02*
X166990000Y-101830000D01*
X166990000Y-101830000D02*
X163990000Y-101830000D01*
X163990000Y-101830000D02*
X163990000Y-99830000D01*
X163990000Y-99830000D02*
X164990000Y-98830000D01*
X164990000Y-108990000D02*
X166990000Y-108990000D01*
X166990000Y-108990000D02*
X166990000Y-111990000D01*
X166990000Y-111990000D02*
X163990000Y-111990000D01*
X163990000Y-111990000D02*
X163990000Y-109990000D01*
X163990000Y-109990000D02*
X164990000Y-108990000D01*
X165015400Y-119150000D02*
X167015400Y-119150000D01*
X167015400Y-119150000D02*
X167015400Y-122150000D01*
X167015400Y-122150000D02*
X164015400Y-122150000D01*
X164015400Y-122150000D02*
X164015400Y-120150000D01*
X164015400Y-120150000D02*
X165015400Y-119150000D01*
X176316191Y-124607143D02*
X176268572Y-124654762D01*
X176125715Y-124702381D01*
X176030477Y-124702381D01*
X175887619Y-124654762D01*
X175792381Y-124559524D01*
X175744762Y-124464286D01*
X175697143Y-124273810D01*
X175697143Y-124130952D01*
X175744762Y-123940476D01*
X175792381Y-123845238D01*
X175887619Y-123750000D01*
X176030477Y-123702381D01*
X176125715Y-123702381D01*
X176268572Y-123750000D01*
X176316191Y-123797619D01*
X176935238Y-123702381D02*
X177125715Y-123702381D01*
X177220953Y-123750000D01*
X177316191Y-123845238D01*
X177363810Y-124035714D01*
X177363810Y-124369048D01*
X177316191Y-124559524D01*
X177220953Y-124654762D01*
X177125715Y-124702381D01*
X176935238Y-124702381D01*
X176840000Y-124654762D01*
X176744762Y-124559524D01*
X176697143Y-124369048D01*
X176697143Y-124035714D01*
X176744762Y-123845238D01*
X176840000Y-123750000D01*
X176935238Y-123702381D01*
X177792381Y-124702381D02*
X177792381Y-123702381D01*
X178363810Y-124702381D01*
X178363810Y-123702381D01*
X178840000Y-124702381D02*
X178840000Y-123702381D01*
X179411429Y-124702381D01*
X179411429Y-123702381D01*
X179649524Y-124797619D02*
X180411429Y-124797619D01*
X180840000Y-123702381D02*
X180935239Y-123702381D01*
X181030477Y-123750000D01*
X181078096Y-123797619D01*
X181125715Y-123892857D01*
X181173334Y-124083333D01*
X181173334Y-124321429D01*
X181125715Y-124511905D01*
X181078096Y-124607143D01*
X181030477Y-124654762D01*
X180935239Y-124702381D01*
X180840000Y-124702381D01*
X180744762Y-124654762D01*
X180697143Y-124607143D01*
X180649524Y-124511905D01*
X180601905Y-124321429D01*
X180601905Y-124083333D01*
X180649524Y-123892857D01*
X180697143Y-123797619D01*
X180744762Y-123750000D01*
X180840000Y-123702381D01*
X182125715Y-124702381D02*
X181554286Y-124702381D01*
X181840000Y-124702381D02*
X181840000Y-123702381D01*
X181744762Y-123845238D01*
X181649524Y-123940476D01*
X181554286Y-123988095D01*
X182459048Y-123702381D02*
X183125715Y-124702381D01*
X183125715Y-123702381D02*
X182459048Y-124702381D01*
X184030477Y-124702381D02*
X183459048Y-124702381D01*
X183744762Y-124702381D02*
X183744762Y-123702381D01*
X183649524Y-123845238D01*
X183554286Y-123940476D01*
X183459048Y-123988095D01*
X184887620Y-123702381D02*
X184697143Y-123702381D01*
X184601905Y-123750000D01*
X184554286Y-123797619D01*
X184459048Y-123940476D01*
X184411429Y-124130952D01*
X184411429Y-124511905D01*
X184459048Y-124607143D01*
X184506667Y-124654762D01*
X184601905Y-124702381D01*
X184792382Y-124702381D01*
X184887620Y-124654762D01*
X184935239Y-124607143D01*
X184982858Y-124511905D01*
X184982858Y-124273810D01*
X184935239Y-124178571D01*
X184887620Y-124130952D01*
X184792382Y-124083333D01*
X184601905Y-124083333D01*
X184506667Y-124130952D01*
X184459048Y-124178571D01*
X184411429Y-124273810D01*
X179601905Y-81942381D02*
X179601905Y-80942381D01*
X179982858Y-80942381D01*
X180078096Y-80990000D01*
X180125715Y-81037619D01*
X180173334Y-81132857D01*
X180173334Y-81275714D01*
X180125715Y-81370952D01*
X180078096Y-81418571D01*
X179982858Y-81466190D01*
X179601905Y-81466190D01*
X181125715Y-81942381D02*
X180554286Y-81942381D01*
X180840000Y-81942381D02*
X180840000Y-80942381D01*
X180744762Y-81085238D01*
X180649524Y-81180476D01*
X180554286Y-81228095D01*
X155354762Y-86052381D02*
X154783333Y-86052381D01*
X155069047Y-86052381D02*
X155069047Y-85052381D01*
X154973809Y-85195238D01*
X154878571Y-85290476D01*
X154783333Y-85338095D01*
X156211905Y-85385714D02*
X156211905Y-86052381D01*
X155783333Y-85385714D02*
X155783333Y-85909524D01*
X155830952Y-86004762D01*
X155926190Y-86052381D01*
X156069048Y-86052381D01*
X156164286Y-86004762D01*
X156211905Y-85957143D01*
X157021429Y-85528571D02*
X156688095Y-85528571D01*
X156688095Y-86052381D02*
X156688095Y-85052381D01*
X157164286Y-85052381D01*
X155783334Y-83207143D02*
X155735715Y-83254762D01*
X155592858Y-83302381D01*
X155497620Y-83302381D01*
X155354762Y-83254762D01*
X155259524Y-83159524D01*
X155211905Y-83064286D01*
X155164286Y-82873810D01*
X155164286Y-82730952D01*
X155211905Y-82540476D01*
X155259524Y-82445238D01*
X155354762Y-82350000D01*
X155497620Y-82302381D01*
X155592858Y-82302381D01*
X155735715Y-82350000D01*
X155783334Y-82397619D01*
X156735715Y-83302381D02*
X156164286Y-83302381D01*
X156450000Y-83302381D02*
X156450000Y-82302381D01*
X156354762Y-82445238D01*
X156259524Y-82540476D01*
X156164286Y-82588095D01*
X155375962Y-96135581D02*
X154804533Y-96135581D01*
X155090247Y-96135581D02*
X155090247Y-95135581D01*
X154995009Y-95278438D01*
X154899771Y-95373676D01*
X154804533Y-95421295D01*
X156233105Y-95468914D02*
X156233105Y-96135581D01*
X155804533Y-95468914D02*
X155804533Y-95992724D01*
X155852152Y-96087962D01*
X155947390Y-96135581D01*
X156090248Y-96135581D01*
X156185486Y-96087962D01*
X156233105Y-96040343D01*
X157042629Y-95611771D02*
X156709295Y-95611771D01*
X156709295Y-96135581D02*
X156709295Y-95135581D01*
X157185486Y-95135581D01*
X155804534Y-93290343D02*
X155756915Y-93337962D01*
X155614058Y-93385581D01*
X155518820Y-93385581D01*
X155375962Y-93337962D01*
X155280724Y-93242724D01*
X155233105Y-93147486D01*
X155185486Y-92957010D01*
X155185486Y-92814152D01*
X155233105Y-92623676D01*
X155280724Y-92528438D01*
X155375962Y-92433200D01*
X155518820Y-92385581D01*
X155614058Y-92385581D01*
X155756915Y-92433200D01*
X155804534Y-92480819D01*
X156185486Y-92480819D02*
X156233105Y-92433200D01*
X156328343Y-92385581D01*
X156566439Y-92385581D01*
X156661677Y-92433200D01*
X156709296Y-92480819D01*
X156756915Y-92576057D01*
X156756915Y-92671295D01*
X156709296Y-92814152D01*
X156137867Y-93385581D01*
X156756915Y-93385581D01*
X155375962Y-106346381D02*
X154804533Y-106346381D01*
X155090247Y-106346381D02*
X155090247Y-105346381D01*
X154995009Y-105489238D01*
X154899771Y-105584476D01*
X154804533Y-105632095D01*
X156233105Y-105679714D02*
X156233105Y-106346381D01*
X155804533Y-105679714D02*
X155804533Y-106203524D01*
X155852152Y-106298762D01*
X155947390Y-106346381D01*
X156090248Y-106346381D01*
X156185486Y-106298762D01*
X156233105Y-106251143D01*
X157042629Y-105822571D02*
X156709295Y-105822571D01*
X156709295Y-106346381D02*
X156709295Y-105346381D01*
X157185486Y-105346381D01*
X155804534Y-103501143D02*
X155756915Y-103548762D01*
X155614058Y-103596381D01*
X155518820Y-103596381D01*
X155375962Y-103548762D01*
X155280724Y-103453524D01*
X155233105Y-103358286D01*
X155185486Y-103167810D01*
X155185486Y-103024952D01*
X155233105Y-102834476D01*
X155280724Y-102739238D01*
X155375962Y-102644000D01*
X155518820Y-102596381D01*
X155614058Y-102596381D01*
X155756915Y-102644000D01*
X155804534Y-102691619D01*
X156137867Y-102596381D02*
X156756915Y-102596381D01*
X156423581Y-102977333D01*
X156566439Y-102977333D01*
X156661677Y-103024952D01*
X156709296Y-103072571D01*
X156756915Y-103167810D01*
X156756915Y-103405905D01*
X156709296Y-103501143D01*
X156661677Y-103548762D01*
X156566439Y-103596381D01*
X156280724Y-103596381D01*
X156185486Y-103548762D01*
X156137867Y-103501143D01*
X155354762Y-116552381D02*
X154783333Y-116552381D01*
X155069047Y-116552381D02*
X155069047Y-115552381D01*
X154973809Y-115695238D01*
X154878571Y-115790476D01*
X154783333Y-115838095D01*
X156211905Y-115885714D02*
X156211905Y-116552381D01*
X155783333Y-115885714D02*
X155783333Y-116409524D01*
X155830952Y-116504762D01*
X155926190Y-116552381D01*
X156069048Y-116552381D01*
X156164286Y-116504762D01*
X156211905Y-116457143D01*
X157021429Y-116028571D02*
X156688095Y-116028571D01*
X156688095Y-116552381D02*
X156688095Y-115552381D01*
X157164286Y-115552381D01*
X155783334Y-113707143D02*
X155735715Y-113754762D01*
X155592858Y-113802381D01*
X155497620Y-113802381D01*
X155354762Y-113754762D01*
X155259524Y-113659524D01*
X155211905Y-113564286D01*
X155164286Y-113373810D01*
X155164286Y-113230952D01*
X155211905Y-113040476D01*
X155259524Y-112945238D01*
X155354762Y-112850000D01*
X155497620Y-112802381D01*
X155592858Y-112802381D01*
X155735715Y-112850000D01*
X155783334Y-112897619D01*
X156640477Y-113135714D02*
X156640477Y-113802381D01*
X156402381Y-112754762D02*
X156164286Y-113469048D01*
X156783334Y-113469048D01*
X154307143Y-87452381D02*
X154402382Y-87452381D01*
X154497620Y-87500000D01*
X154545239Y-87547619D01*
X154592858Y-87642857D01*
X154640477Y-87833333D01*
X154640477Y-88071429D01*
X154592858Y-88261905D01*
X154545239Y-88357143D01*
X154497620Y-88404762D01*
X154402382Y-88452381D01*
X154307143Y-88452381D01*
X154211905Y-88404762D01*
X154164286Y-88357143D01*
X154116667Y-88261905D01*
X154069048Y-88071429D01*
X154069048Y-87833333D01*
X154116667Y-87642857D01*
X154164286Y-87547619D01*
X154211905Y-87500000D01*
X154307143Y-87452381D01*
X155069048Y-88357143D02*
X155116667Y-88404762D01*
X155069048Y-88452381D01*
X155021429Y-88404762D01*
X155069048Y-88357143D01*
X155069048Y-88452381D01*
X156069048Y-88452381D02*
X155497619Y-88452381D01*
X155783333Y-88452381D02*
X155783333Y-87452381D01*
X155688095Y-87595238D01*
X155592857Y-87690476D01*
X155497619Y-87738095D01*
X156926191Y-87785714D02*
X156926191Y-88452381D01*
X156497619Y-87785714D02*
X156497619Y-88309524D01*
X156545238Y-88404762D01*
X156640476Y-88452381D01*
X156783334Y-88452381D01*
X156878572Y-88404762D01*
X156926191Y-88357143D01*
X157735715Y-87928571D02*
X157402381Y-87928571D01*
X157402381Y-88452381D02*
X157402381Y-87452381D01*
X157878572Y-87452381D01*
X155783334Y-85607143D02*
X155735715Y-85654762D01*
X155592858Y-85702381D01*
X155497620Y-85702381D01*
X155354762Y-85654762D01*
X155259524Y-85559524D01*
X155211905Y-85464286D01*
X155164286Y-85273810D01*
X155164286Y-85130952D01*
X155211905Y-84940476D01*
X155259524Y-84845238D01*
X155354762Y-84750000D01*
X155497620Y-84702381D01*
X155592858Y-84702381D01*
X155735715Y-84750000D01*
X155783334Y-84797619D01*
X156688096Y-84702381D02*
X156211905Y-84702381D01*
X156164286Y-85178571D01*
X156211905Y-85130952D01*
X156307143Y-85083333D01*
X156545239Y-85083333D01*
X156640477Y-85130952D01*
X156688096Y-85178571D01*
X156735715Y-85273810D01*
X156735715Y-85511905D01*
X156688096Y-85607143D01*
X156640477Y-85654762D01*
X156545239Y-85702381D01*
X156307143Y-85702381D01*
X156211905Y-85654762D01*
X156164286Y-85607143D01*
X154328343Y-97472381D02*
X154423582Y-97472381D01*
X154518820Y-97520000D01*
X154566439Y-97567619D01*
X154614058Y-97662857D01*
X154661677Y-97853333D01*
X154661677Y-98091429D01*
X154614058Y-98281905D01*
X154566439Y-98377143D01*
X154518820Y-98424762D01*
X154423582Y-98472381D01*
X154328343Y-98472381D01*
X154233105Y-98424762D01*
X154185486Y-98377143D01*
X154137867Y-98281905D01*
X154090248Y-98091429D01*
X154090248Y-97853333D01*
X154137867Y-97662857D01*
X154185486Y-97567619D01*
X154233105Y-97520000D01*
X154328343Y-97472381D01*
X155090248Y-98377143D02*
X155137867Y-98424762D01*
X155090248Y-98472381D01*
X155042629Y-98424762D01*
X155090248Y-98377143D01*
X155090248Y-98472381D01*
X156090248Y-98472381D02*
X155518819Y-98472381D01*
X155804533Y-98472381D02*
X155804533Y-97472381D01*
X155709295Y-97615238D01*
X155614057Y-97710476D01*
X155518819Y-97758095D01*
X156947391Y-97805714D02*
X156947391Y-98472381D01*
X156518819Y-97805714D02*
X156518819Y-98329524D01*
X156566438Y-98424762D01*
X156661676Y-98472381D01*
X156804534Y-98472381D01*
X156899772Y-98424762D01*
X156947391Y-98377143D01*
X157756915Y-97948571D02*
X157423581Y-97948571D01*
X157423581Y-98472381D02*
X157423581Y-97472381D01*
X157899772Y-97472381D01*
X155804534Y-95627143D02*
X155756915Y-95674762D01*
X155614058Y-95722381D01*
X155518820Y-95722381D01*
X155375962Y-95674762D01*
X155280724Y-95579524D01*
X155233105Y-95484286D01*
X155185486Y-95293810D01*
X155185486Y-95150952D01*
X155233105Y-94960476D01*
X155280724Y-94865238D01*
X155375962Y-94770000D01*
X155518820Y-94722381D01*
X155614058Y-94722381D01*
X155756915Y-94770000D01*
X155804534Y-94817619D01*
X156661677Y-94722381D02*
X156471200Y-94722381D01*
X156375962Y-94770000D01*
X156328343Y-94817619D01*
X156233105Y-94960476D01*
X156185486Y-95150952D01*
X156185486Y-95531905D01*
X156233105Y-95627143D01*
X156280724Y-95674762D01*
X156375962Y-95722381D01*
X156566439Y-95722381D01*
X156661677Y-95674762D01*
X156709296Y-95627143D01*
X156756915Y-95531905D01*
X156756915Y-95293810D01*
X156709296Y-95198571D01*
X156661677Y-95150952D01*
X156566439Y-95103333D01*
X156375962Y-95103333D01*
X156280724Y-95150952D01*
X156233105Y-95198571D01*
X156185486Y-95293810D01*
X154307143Y-107632381D02*
X154402382Y-107632381D01*
X154497620Y-107680000D01*
X154545239Y-107727619D01*
X154592858Y-107822857D01*
X154640477Y-108013333D01*
X154640477Y-108251429D01*
X154592858Y-108441905D01*
X154545239Y-108537143D01*
X154497620Y-108584762D01*
X154402382Y-108632381D01*
X154307143Y-108632381D01*
X154211905Y-108584762D01*
X154164286Y-108537143D01*
X154116667Y-108441905D01*
X154069048Y-108251429D01*
X154069048Y-108013333D01*
X154116667Y-107822857D01*
X154164286Y-107727619D01*
X154211905Y-107680000D01*
X154307143Y-107632381D01*
X155069048Y-108537143D02*
X155116667Y-108584762D01*
X155069048Y-108632381D01*
X155021429Y-108584762D01*
X155069048Y-108537143D01*
X155069048Y-108632381D01*
X156069048Y-108632381D02*
X155497619Y-108632381D01*
X155783333Y-108632381D02*
X155783333Y-107632381D01*
X155688095Y-107775238D01*
X155592857Y-107870476D01*
X155497619Y-107918095D01*
X156926191Y-107965714D02*
X156926191Y-108632381D01*
X156497619Y-107965714D02*
X156497619Y-108489524D01*
X156545238Y-108584762D01*
X156640476Y-108632381D01*
X156783334Y-108632381D01*
X156878572Y-108584762D01*
X156926191Y-108537143D01*
X157735715Y-108108571D02*
X157402381Y-108108571D01*
X157402381Y-108632381D02*
X157402381Y-107632381D01*
X157878572Y-107632381D01*
X155783334Y-105787143D02*
X155735715Y-105834762D01*
X155592858Y-105882381D01*
X155497620Y-105882381D01*
X155354762Y-105834762D01*
X155259524Y-105739524D01*
X155211905Y-105644286D01*
X155164286Y-105453810D01*
X155164286Y-105310952D01*
X155211905Y-105120476D01*
X155259524Y-105025238D01*
X155354762Y-104930000D01*
X155497620Y-104882381D01*
X155592858Y-104882381D01*
X155735715Y-104930000D01*
X155783334Y-104977619D01*
X156116667Y-104882381D02*
X156783334Y-104882381D01*
X156354762Y-105882381D01*
X154307143Y-118152381D02*
X154402382Y-118152381D01*
X154497620Y-118200000D01*
X154545239Y-118247619D01*
X154592858Y-118342857D01*
X154640477Y-118533333D01*
X154640477Y-118771429D01*
X154592858Y-118961905D01*
X154545239Y-119057143D01*
X154497620Y-119104762D01*
X154402382Y-119152381D01*
X154307143Y-119152381D01*
X154211905Y-119104762D01*
X154164286Y-119057143D01*
X154116667Y-118961905D01*
X154069048Y-118771429D01*
X154069048Y-118533333D01*
X154116667Y-118342857D01*
X154164286Y-118247619D01*
X154211905Y-118200000D01*
X154307143Y-118152381D01*
X155069048Y-119057143D02*
X155116667Y-119104762D01*
X155069048Y-119152381D01*
X155021429Y-119104762D01*
X155069048Y-119057143D01*
X155069048Y-119152381D01*
X156069048Y-119152381D02*
X155497619Y-119152381D01*
X155783333Y-119152381D02*
X155783333Y-118152381D01*
X155688095Y-118295238D01*
X155592857Y-118390476D01*
X155497619Y-118438095D01*
X156926191Y-118485714D02*
X156926191Y-119152381D01*
X156497619Y-118485714D02*
X156497619Y-119009524D01*
X156545238Y-119104762D01*
X156640476Y-119152381D01*
X156783334Y-119152381D01*
X156878572Y-119104762D01*
X156926191Y-119057143D01*
X157735715Y-118628571D02*
X157402381Y-118628571D01*
X157402381Y-119152381D02*
X157402381Y-118152381D01*
X157878572Y-118152381D01*
X155783334Y-116307143D02*
X155735715Y-116354762D01*
X155592858Y-116402381D01*
X155497620Y-116402381D01*
X155354762Y-116354762D01*
X155259524Y-116259524D01*
X155211905Y-116164286D01*
X155164286Y-115973810D01*
X155164286Y-115830952D01*
X155211905Y-115640476D01*
X155259524Y-115545238D01*
X155354762Y-115450000D01*
X155497620Y-115402381D01*
X155592858Y-115402381D01*
X155735715Y-115450000D01*
X155783334Y-115497619D01*
X156354762Y-115830952D02*
X156259524Y-115783333D01*
X156211905Y-115735714D01*
X156164286Y-115640476D01*
X156164286Y-115592857D01*
X156211905Y-115497619D01*
X156259524Y-115450000D01*
X156354762Y-115402381D01*
X156545239Y-115402381D01*
X156640477Y-115450000D01*
X156688096Y-115497619D01*
X156735715Y-115592857D01*
X156735715Y-115640476D01*
X156688096Y-115735714D01*
X156640477Y-115783333D01*
X156545239Y-115830952D01*
X156354762Y-115830952D01*
X156259524Y-115878571D01*
X156211905Y-115926190D01*
X156164286Y-116021429D01*
X156164286Y-116211905D01*
X156211905Y-116307143D01*
X156259524Y-116354762D01*
X156354762Y-116402381D01*
X156545239Y-116402381D01*
X156640477Y-116354762D01*
X156688096Y-116307143D01*
X156735715Y-116211905D01*
X156735715Y-116021429D01*
X156688096Y-115926190D01*
X156640477Y-115878571D01*
X156545239Y-115830952D01*
X136378572Y-122952381D02*
X135807143Y-122952381D01*
X136092857Y-122952381D02*
X136092857Y-121952381D01*
X135997619Y-122095238D01*
X135902381Y-122190476D01*
X135807143Y-122238095D01*
X136997619Y-121952381D02*
X137092858Y-121952381D01*
X137188096Y-122000000D01*
X137235715Y-122047619D01*
X137283334Y-122142857D01*
X137330953Y-122333333D01*
X137330953Y-122571429D01*
X137283334Y-122761905D01*
X137235715Y-122857143D01*
X137188096Y-122904762D01*
X137092858Y-122952381D01*
X136997619Y-122952381D01*
X136902381Y-122904762D01*
X136854762Y-122857143D01*
X136807143Y-122761905D01*
X136759524Y-122571429D01*
X136759524Y-122333333D01*
X136807143Y-122142857D01*
X136854762Y-122047619D01*
X136902381Y-122000000D01*
X136997619Y-121952381D01*
X138188096Y-122285714D02*
X138188096Y-122952381D01*
X137759524Y-122285714D02*
X137759524Y-122809524D01*
X137807143Y-122904762D01*
X137902381Y-122952381D01*
X138045239Y-122952381D01*
X138140477Y-122904762D01*
X138188096Y-122857143D01*
X138997620Y-122428571D02*
X138664286Y-122428571D01*
X138664286Y-122952381D02*
X138664286Y-121952381D01*
X139140477Y-121952381D01*
X137283334Y-125607143D02*
X137235715Y-125654762D01*
X137092858Y-125702381D01*
X136997620Y-125702381D01*
X136854762Y-125654762D01*
X136759524Y-125559524D01*
X136711905Y-125464286D01*
X136664286Y-125273810D01*
X136664286Y-125130952D01*
X136711905Y-124940476D01*
X136759524Y-124845238D01*
X136854762Y-124750000D01*
X136997620Y-124702381D01*
X137092858Y-124702381D01*
X137235715Y-124750000D01*
X137283334Y-124797619D01*
X137759524Y-125702381D02*
X137950000Y-125702381D01*
X138045239Y-125654762D01*
X138092858Y-125607143D01*
X138188096Y-125464286D01*
X138235715Y-125273810D01*
X138235715Y-124892857D01*
X138188096Y-124797619D01*
X138140477Y-124750000D01*
X138045239Y-124702381D01*
X137854762Y-124702381D01*
X137759524Y-124750000D01*
X137711905Y-124797619D01*
X137664286Y-124892857D01*
X137664286Y-125130952D01*
X137711905Y-125226190D01*
X137759524Y-125273810D01*
X137854762Y-125321429D01*
X138045239Y-125321429D01*
X138140477Y-125273810D01*
X138188096Y-125226190D01*
X138235715Y-125130952D01*
X155375962Y-91157181D02*
X154804533Y-91157181D01*
X155090247Y-91157181D02*
X155090247Y-90157181D01*
X154995009Y-90300038D01*
X154899771Y-90395276D01*
X154804533Y-90442895D01*
X156233105Y-90490514D02*
X156233105Y-91157181D01*
X155804533Y-90490514D02*
X155804533Y-91014324D01*
X155852152Y-91109562D01*
X155947390Y-91157181D01*
X156090248Y-91157181D01*
X156185486Y-91109562D01*
X156233105Y-91061943D01*
X157042629Y-90633371D02*
X156709295Y-90633371D01*
X156709295Y-91157181D02*
X156709295Y-90157181D01*
X157185486Y-90157181D01*
X155328343Y-88311943D02*
X155280724Y-88359562D01*
X155137867Y-88407181D01*
X155042629Y-88407181D01*
X154899771Y-88359562D01*
X154804533Y-88264324D01*
X154756914Y-88169086D01*
X154709295Y-87978610D01*
X154709295Y-87835752D01*
X154756914Y-87645276D01*
X154804533Y-87550038D01*
X154899771Y-87454800D01*
X155042629Y-87407181D01*
X155137867Y-87407181D01*
X155280724Y-87454800D01*
X155328343Y-87502419D01*
X156280724Y-88407181D02*
X155709295Y-88407181D01*
X155995009Y-88407181D02*
X155995009Y-87407181D01*
X155899771Y-87550038D01*
X155804533Y-87645276D01*
X155709295Y-87692895D01*
X156899771Y-87407181D02*
X156995010Y-87407181D01*
X157090248Y-87454800D01*
X157137867Y-87502419D01*
X157185486Y-87597657D01*
X157233105Y-87788133D01*
X157233105Y-88026229D01*
X157185486Y-88216705D01*
X157137867Y-88311943D01*
X157090248Y-88359562D01*
X156995010Y-88407181D01*
X156899771Y-88407181D01*
X156804533Y-88359562D01*
X156756914Y-88311943D01*
X156709295Y-88216705D01*
X156661676Y-88026229D01*
X156661676Y-87788133D01*
X156709295Y-87597657D01*
X156756914Y-87502419D01*
X156804533Y-87454800D01*
X156899771Y-87407181D01*
X155354762Y-101266381D02*
X154783333Y-101266381D01*
X155069047Y-101266381D02*
X155069047Y-100266381D01*
X154973809Y-100409238D01*
X154878571Y-100504476D01*
X154783333Y-100552095D01*
X156211905Y-100599714D02*
X156211905Y-101266381D01*
X155783333Y-100599714D02*
X155783333Y-101123524D01*
X155830952Y-101218762D01*
X155926190Y-101266381D01*
X156069048Y-101266381D01*
X156164286Y-101218762D01*
X156211905Y-101171143D01*
X157021429Y-100742571D02*
X156688095Y-100742571D01*
X156688095Y-101266381D02*
X156688095Y-100266381D01*
X157164286Y-100266381D01*
X155307143Y-98421143D02*
X155259524Y-98468762D01*
X155116667Y-98516381D01*
X155021429Y-98516381D01*
X154878571Y-98468762D01*
X154783333Y-98373524D01*
X154735714Y-98278286D01*
X154688095Y-98087810D01*
X154688095Y-97944952D01*
X154735714Y-97754476D01*
X154783333Y-97659238D01*
X154878571Y-97564000D01*
X155021429Y-97516381D01*
X155116667Y-97516381D01*
X155259524Y-97564000D01*
X155307143Y-97611619D01*
X156259524Y-98516381D02*
X155688095Y-98516381D01*
X155973809Y-98516381D02*
X155973809Y-97516381D01*
X155878571Y-97659238D01*
X155783333Y-97754476D01*
X155688095Y-97802095D01*
X157211905Y-98516381D02*
X156640476Y-98516381D01*
X156926190Y-98516381D02*
X156926190Y-97516381D01*
X156830952Y-97659238D01*
X156735714Y-97754476D01*
X156640476Y-97802095D01*
X155354762Y-111426381D02*
X154783333Y-111426381D01*
X155069047Y-111426381D02*
X155069047Y-110426381D01*
X154973809Y-110569238D01*
X154878571Y-110664476D01*
X154783333Y-110712095D01*
X156211905Y-110759714D02*
X156211905Y-111426381D01*
X155783333Y-110759714D02*
X155783333Y-111283524D01*
X155830952Y-111378762D01*
X155926190Y-111426381D01*
X156069048Y-111426381D01*
X156164286Y-111378762D01*
X156211905Y-111331143D01*
X157021429Y-110902571D02*
X156688095Y-110902571D01*
X156688095Y-111426381D02*
X156688095Y-110426381D01*
X157164286Y-110426381D01*
X155307143Y-108581143D02*
X155259524Y-108628762D01*
X155116667Y-108676381D01*
X155021429Y-108676381D01*
X154878571Y-108628762D01*
X154783333Y-108533524D01*
X154735714Y-108438286D01*
X154688095Y-108247810D01*
X154688095Y-108104952D01*
X154735714Y-107914476D01*
X154783333Y-107819238D01*
X154878571Y-107724000D01*
X155021429Y-107676381D01*
X155116667Y-107676381D01*
X155259524Y-107724000D01*
X155307143Y-107771619D01*
X156259524Y-108676381D02*
X155688095Y-108676381D01*
X155973809Y-108676381D02*
X155973809Y-107676381D01*
X155878571Y-107819238D01*
X155783333Y-107914476D01*
X155688095Y-107962095D01*
X156640476Y-107771619D02*
X156688095Y-107724000D01*
X156783333Y-107676381D01*
X157021429Y-107676381D01*
X157116667Y-107724000D01*
X157164286Y-107771619D01*
X157211905Y-107866857D01*
X157211905Y-107962095D01*
X157164286Y-108104952D01*
X156592857Y-108676381D01*
X157211905Y-108676381D01*
X155354762Y-121637181D02*
X154783333Y-121637181D01*
X155069047Y-121637181D02*
X155069047Y-120637181D01*
X154973809Y-120780038D01*
X154878571Y-120875276D01*
X154783333Y-120922895D01*
X156211905Y-120970514D02*
X156211905Y-121637181D01*
X155783333Y-120970514D02*
X155783333Y-121494324D01*
X155830952Y-121589562D01*
X155926190Y-121637181D01*
X156069048Y-121637181D01*
X156164286Y-121589562D01*
X156211905Y-121541943D01*
X157021429Y-121113371D02*
X156688095Y-121113371D01*
X156688095Y-121637181D02*
X156688095Y-120637181D01*
X157164286Y-120637181D01*
X155307143Y-118791943D02*
X155259524Y-118839562D01*
X155116667Y-118887181D01*
X155021429Y-118887181D01*
X154878571Y-118839562D01*
X154783333Y-118744324D01*
X154735714Y-118649086D01*
X154688095Y-118458610D01*
X154688095Y-118315752D01*
X154735714Y-118125276D01*
X154783333Y-118030038D01*
X154878571Y-117934800D01*
X155021429Y-117887181D01*
X155116667Y-117887181D01*
X155259524Y-117934800D01*
X155307143Y-117982419D01*
X156259524Y-118887181D02*
X155688095Y-118887181D01*
X155973809Y-118887181D02*
X155973809Y-117887181D01*
X155878571Y-118030038D01*
X155783333Y-118125276D01*
X155688095Y-118172895D01*
X156592857Y-117887181D02*
X157211905Y-117887181D01*
X156878571Y-118268133D01*
X157021429Y-118268133D01*
X157116667Y-118315752D01*
X157164286Y-118363371D01*
X157211905Y-118458610D01*
X157211905Y-118696705D01*
X157164286Y-118791943D01*
X157116667Y-118839562D01*
X157021429Y-118887181D01*
X156735714Y-118887181D01*
X156640476Y-118839562D01*
X156592857Y-118791943D01*
X121947619Y-117992857D02*
X121900000Y-117945238D01*
X121852381Y-117850000D01*
X121852381Y-117611904D01*
X121900000Y-117516666D01*
X121947619Y-117469047D01*
X122042857Y-117421428D01*
X122138095Y-117421428D01*
X122280952Y-117469047D01*
X122852381Y-118040476D01*
X122852381Y-117421428D01*
X121947619Y-117040476D02*
X121900000Y-116992857D01*
X121852381Y-116897619D01*
X121852381Y-116659523D01*
X121900000Y-116564285D01*
X121947619Y-116516666D01*
X122042857Y-116469047D01*
X122138095Y-116469047D01*
X122280952Y-116516666D01*
X122852381Y-117088095D01*
X122852381Y-116469047D01*
X122185714Y-115611904D02*
X122852381Y-115611904D01*
X122185714Y-116040476D02*
X122709524Y-116040476D01*
X122804762Y-115992857D01*
X122852381Y-115897619D01*
X122852381Y-115754761D01*
X122804762Y-115659523D01*
X122757143Y-115611904D01*
X122328571Y-114802380D02*
X122328571Y-115135714D01*
X122852381Y-115135714D02*
X121852381Y-115135714D01*
X121852381Y-114659523D01*
X125507143Y-116992857D02*
X125554762Y-117040476D01*
X125602381Y-117183333D01*
X125602381Y-117278571D01*
X125554762Y-117421429D01*
X125459524Y-117516667D01*
X125364286Y-117564286D01*
X125173810Y-117611905D01*
X125030952Y-117611905D01*
X124840476Y-117564286D01*
X124745238Y-117516667D01*
X124650000Y-117421429D01*
X124602381Y-117278571D01*
X124602381Y-117183333D01*
X124650000Y-117040476D01*
X124697619Y-116992857D01*
X125602381Y-116040476D02*
X125602381Y-116611905D01*
X125602381Y-116326191D02*
X124602381Y-116326191D01*
X124745238Y-116421429D01*
X124840476Y-116516667D01*
X124888095Y-116611905D01*
X124935714Y-115183333D02*
X125602381Y-115183333D01*
X124554762Y-115421429D02*
X125269048Y-115659524D01*
X125269048Y-115040476D01*
X154328343Y-92798781D02*
X154423582Y-92798781D01*
X154518820Y-92846400D01*
X154566439Y-92894019D01*
X154614058Y-92989257D01*
X154661677Y-93179733D01*
X154661677Y-93417829D01*
X154614058Y-93608305D01*
X154566439Y-93703543D01*
X154518820Y-93751162D01*
X154423582Y-93798781D01*
X154328343Y-93798781D01*
X154233105Y-93751162D01*
X154185486Y-93703543D01*
X154137867Y-93608305D01*
X154090248Y-93417829D01*
X154090248Y-93179733D01*
X154137867Y-92989257D01*
X154185486Y-92894019D01*
X154233105Y-92846400D01*
X154328343Y-92798781D01*
X155090248Y-93703543D02*
X155137867Y-93751162D01*
X155090248Y-93798781D01*
X155042629Y-93751162D01*
X155090248Y-93703543D01*
X155090248Y-93798781D01*
X156090248Y-93798781D02*
X155518819Y-93798781D01*
X155804533Y-93798781D02*
X155804533Y-92798781D01*
X155709295Y-92941638D01*
X155614057Y-93036876D01*
X155518819Y-93084495D01*
X156947391Y-93132114D02*
X156947391Y-93798781D01*
X156518819Y-93132114D02*
X156518819Y-93655924D01*
X156566438Y-93751162D01*
X156661676Y-93798781D01*
X156804534Y-93798781D01*
X156899772Y-93751162D01*
X156947391Y-93703543D01*
X157756915Y-93274971D02*
X157423581Y-93274971D01*
X157423581Y-93798781D02*
X157423581Y-92798781D01*
X157899772Y-92798781D01*
X155328343Y-90953543D02*
X155280724Y-91001162D01*
X155137867Y-91048781D01*
X155042629Y-91048781D01*
X154899771Y-91001162D01*
X154804533Y-90905924D01*
X154756914Y-90810686D01*
X154709295Y-90620210D01*
X154709295Y-90477352D01*
X154756914Y-90286876D01*
X154804533Y-90191638D01*
X154899771Y-90096400D01*
X155042629Y-90048781D01*
X155137867Y-90048781D01*
X155280724Y-90096400D01*
X155328343Y-90144019D01*
X156280724Y-91048781D02*
X155709295Y-91048781D01*
X155995009Y-91048781D02*
X155995009Y-90048781D01*
X155899771Y-90191638D01*
X155804533Y-90286876D01*
X155709295Y-90334495D01*
X157185486Y-90048781D02*
X156709295Y-90048781D01*
X156661676Y-90524971D01*
X156709295Y-90477352D01*
X156804533Y-90429733D01*
X157042629Y-90429733D01*
X157137867Y-90477352D01*
X157185486Y-90524971D01*
X157233105Y-90620210D01*
X157233105Y-90858305D01*
X157185486Y-90953543D01*
X157137867Y-91001162D01*
X157042629Y-91048781D01*
X156804533Y-91048781D01*
X156709295Y-91001162D01*
X156661676Y-90953543D01*
X154328343Y-102857181D02*
X154423582Y-102857181D01*
X154518820Y-102904800D01*
X154566439Y-102952419D01*
X154614058Y-103047657D01*
X154661677Y-103238133D01*
X154661677Y-103476229D01*
X154614058Y-103666705D01*
X154566439Y-103761943D01*
X154518820Y-103809562D01*
X154423582Y-103857181D01*
X154328343Y-103857181D01*
X154233105Y-103809562D01*
X154185486Y-103761943D01*
X154137867Y-103666705D01*
X154090248Y-103476229D01*
X154090248Y-103238133D01*
X154137867Y-103047657D01*
X154185486Y-102952419D01*
X154233105Y-102904800D01*
X154328343Y-102857181D01*
X155090248Y-103761943D02*
X155137867Y-103809562D01*
X155090248Y-103857181D01*
X155042629Y-103809562D01*
X155090248Y-103761943D01*
X155090248Y-103857181D01*
X156090248Y-103857181D02*
X155518819Y-103857181D01*
X155804533Y-103857181D02*
X155804533Y-102857181D01*
X155709295Y-103000038D01*
X155614057Y-103095276D01*
X155518819Y-103142895D01*
X156947391Y-103190514D02*
X156947391Y-103857181D01*
X156518819Y-103190514D02*
X156518819Y-103714324D01*
X156566438Y-103809562D01*
X156661676Y-103857181D01*
X156804534Y-103857181D01*
X156899772Y-103809562D01*
X156947391Y-103761943D01*
X157756915Y-103333371D02*
X157423581Y-103333371D01*
X157423581Y-103857181D02*
X157423581Y-102857181D01*
X157899772Y-102857181D01*
X155328343Y-101011943D02*
X155280724Y-101059562D01*
X155137867Y-101107181D01*
X155042629Y-101107181D01*
X154899771Y-101059562D01*
X154804533Y-100964324D01*
X154756914Y-100869086D01*
X154709295Y-100678610D01*
X154709295Y-100535752D01*
X154756914Y-100345276D01*
X154804533Y-100250038D01*
X154899771Y-100154800D01*
X155042629Y-100107181D01*
X155137867Y-100107181D01*
X155280724Y-100154800D01*
X155328343Y-100202419D01*
X156280724Y-101107181D02*
X155709295Y-101107181D01*
X155995009Y-101107181D02*
X155995009Y-100107181D01*
X155899771Y-100250038D01*
X155804533Y-100345276D01*
X155709295Y-100392895D01*
X157137867Y-100107181D02*
X156947390Y-100107181D01*
X156852152Y-100154800D01*
X156804533Y-100202419D01*
X156709295Y-100345276D01*
X156661676Y-100535752D01*
X156661676Y-100916705D01*
X156709295Y-101011943D01*
X156756914Y-101059562D01*
X156852152Y-101107181D01*
X157042629Y-101107181D01*
X157137867Y-101059562D01*
X157185486Y-101011943D01*
X157233105Y-100916705D01*
X157233105Y-100678610D01*
X157185486Y-100583371D01*
X157137867Y-100535752D01*
X157042629Y-100488133D01*
X156852152Y-100488133D01*
X156756914Y-100535752D01*
X156709295Y-100583371D01*
X156661676Y-100678610D01*
X154328343Y-113152381D02*
X154423582Y-113152381D01*
X154518820Y-113200000D01*
X154566439Y-113247619D01*
X154614058Y-113342857D01*
X154661677Y-113533333D01*
X154661677Y-113771429D01*
X154614058Y-113961905D01*
X154566439Y-114057143D01*
X154518820Y-114104762D01*
X154423582Y-114152381D01*
X154328343Y-114152381D01*
X154233105Y-114104762D01*
X154185486Y-114057143D01*
X154137867Y-113961905D01*
X154090248Y-113771429D01*
X154090248Y-113533333D01*
X154137867Y-113342857D01*
X154185486Y-113247619D01*
X154233105Y-113200000D01*
X154328343Y-113152381D01*
X155090248Y-114057143D02*
X155137867Y-114104762D01*
X155090248Y-114152381D01*
X155042629Y-114104762D01*
X155090248Y-114057143D01*
X155090248Y-114152381D01*
X156090248Y-114152381D02*
X155518819Y-114152381D01*
X155804533Y-114152381D02*
X155804533Y-113152381D01*
X155709295Y-113295238D01*
X155614057Y-113390476D01*
X155518819Y-113438095D01*
X156947391Y-113485714D02*
X156947391Y-114152381D01*
X156518819Y-113485714D02*
X156518819Y-114009524D01*
X156566438Y-114104762D01*
X156661676Y-114152381D01*
X156804534Y-114152381D01*
X156899772Y-114104762D01*
X156947391Y-114057143D01*
X157756915Y-113628571D02*
X157423581Y-113628571D01*
X157423581Y-114152381D02*
X157423581Y-113152381D01*
X157899772Y-113152381D01*
X155328343Y-111307143D02*
X155280724Y-111354762D01*
X155137867Y-111402381D01*
X155042629Y-111402381D01*
X154899771Y-111354762D01*
X154804533Y-111259524D01*
X154756914Y-111164286D01*
X154709295Y-110973810D01*
X154709295Y-110830952D01*
X154756914Y-110640476D01*
X154804533Y-110545238D01*
X154899771Y-110450000D01*
X155042629Y-110402381D01*
X155137867Y-110402381D01*
X155280724Y-110450000D01*
X155328343Y-110497619D01*
X156280724Y-111402381D02*
X155709295Y-111402381D01*
X155995009Y-111402381D02*
X155995009Y-110402381D01*
X155899771Y-110545238D01*
X155804533Y-110640476D01*
X155709295Y-110688095D01*
X156614057Y-110402381D02*
X157280724Y-110402381D01*
X156852152Y-111402381D01*
X154307143Y-123152381D02*
X154402382Y-123152381D01*
X154497620Y-123200000D01*
X154545239Y-123247619D01*
X154592858Y-123342857D01*
X154640477Y-123533333D01*
X154640477Y-123771429D01*
X154592858Y-123961905D01*
X154545239Y-124057143D01*
X154497620Y-124104762D01*
X154402382Y-124152381D01*
X154307143Y-124152381D01*
X154211905Y-124104762D01*
X154164286Y-124057143D01*
X154116667Y-123961905D01*
X154069048Y-123771429D01*
X154069048Y-123533333D01*
X154116667Y-123342857D01*
X154164286Y-123247619D01*
X154211905Y-123200000D01*
X154307143Y-123152381D01*
X155069048Y-124057143D02*
X155116667Y-124104762D01*
X155069048Y-124152381D01*
X155021429Y-124104762D01*
X155069048Y-124057143D01*
X155069048Y-124152381D01*
X156069048Y-124152381D02*
X155497619Y-124152381D01*
X155783333Y-124152381D02*
X155783333Y-123152381D01*
X155688095Y-123295238D01*
X155592857Y-123390476D01*
X155497619Y-123438095D01*
X156926191Y-123485714D02*
X156926191Y-124152381D01*
X156497619Y-123485714D02*
X156497619Y-124009524D01*
X156545238Y-124104762D01*
X156640476Y-124152381D01*
X156783334Y-124152381D01*
X156878572Y-124104762D01*
X156926191Y-124057143D01*
X157735715Y-123628571D02*
X157402381Y-123628571D01*
X157402381Y-124152381D02*
X157402381Y-123152381D01*
X157878572Y-123152381D01*
X155307143Y-121307143D02*
X155259524Y-121354762D01*
X155116667Y-121402381D01*
X155021429Y-121402381D01*
X154878571Y-121354762D01*
X154783333Y-121259524D01*
X154735714Y-121164286D01*
X154688095Y-120973810D01*
X154688095Y-120830952D01*
X154735714Y-120640476D01*
X154783333Y-120545238D01*
X154878571Y-120450000D01*
X155021429Y-120402381D01*
X155116667Y-120402381D01*
X155259524Y-120450000D01*
X155307143Y-120497619D01*
X156259524Y-121402381D02*
X155688095Y-121402381D01*
X155973809Y-121402381D02*
X155973809Y-120402381D01*
X155878571Y-120545238D01*
X155783333Y-120640476D01*
X155688095Y-120688095D01*
X156830952Y-120830952D02*
X156735714Y-120783333D01*
X156688095Y-120735714D01*
X156640476Y-120640476D01*
X156640476Y-120592857D01*
X156688095Y-120497619D01*
X156735714Y-120450000D01*
X156830952Y-120402381D01*
X157021429Y-120402381D01*
X157116667Y-120450000D01*
X157164286Y-120497619D01*
X157211905Y-120592857D01*
X157211905Y-120640476D01*
X157164286Y-120735714D01*
X157116667Y-120783333D01*
X157021429Y-120830952D01*
X156830952Y-120830952D01*
X156735714Y-120878571D01*
X156688095Y-120926190D01*
X156640476Y-121021429D01*
X156640476Y-121211905D01*
X156688095Y-121307143D01*
X156735714Y-121354762D01*
X156830952Y-121402381D01*
X157021429Y-121402381D01*
X157116667Y-121354762D01*
X157164286Y-121307143D01*
X157211905Y-121211905D01*
X157211905Y-121021429D01*
X157164286Y-120926190D01*
X157116667Y-120878571D01*
X157021429Y-120830952D01*
X133877619Y-116832857D02*
X133830000Y-116785238D01*
X133782381Y-116690000D01*
X133782381Y-116451904D01*
X133830000Y-116356666D01*
X133877619Y-116309047D01*
X133972857Y-116261428D01*
X134068095Y-116261428D01*
X134210952Y-116309047D01*
X134782381Y-116880476D01*
X134782381Y-116261428D01*
X133877619Y-115880476D02*
X133830000Y-115832857D01*
X133782381Y-115737619D01*
X133782381Y-115499523D01*
X133830000Y-115404285D01*
X133877619Y-115356666D01*
X133972857Y-115309047D01*
X134068095Y-115309047D01*
X134210952Y-115356666D01*
X134782381Y-115928095D01*
X134782381Y-115309047D01*
X134115714Y-114451904D02*
X134782381Y-114451904D01*
X134115714Y-114880476D02*
X134639524Y-114880476D01*
X134734762Y-114832857D01*
X134782381Y-114737619D01*
X134782381Y-114594761D01*
X134734762Y-114499523D01*
X134687143Y-114451904D01*
X134258571Y-113642380D02*
X134258571Y-113975714D01*
X134782381Y-113975714D02*
X133782381Y-113975714D01*
X133782381Y-113499523D01*
X137437143Y-115832857D02*
X137484762Y-115880476D01*
X137532381Y-116023333D01*
X137532381Y-116118571D01*
X137484762Y-116261429D01*
X137389524Y-116356667D01*
X137294286Y-116404286D01*
X137103810Y-116451905D01*
X136960952Y-116451905D01*
X136770476Y-116404286D01*
X136675238Y-116356667D01*
X136580000Y-116261429D01*
X136532381Y-116118571D01*
X136532381Y-116023333D01*
X136580000Y-115880476D01*
X136627619Y-115832857D01*
X136627619Y-115451905D02*
X136580000Y-115404286D01*
X136532381Y-115309048D01*
X136532381Y-115070952D01*
X136580000Y-114975714D01*
X136627619Y-114928095D01*
X136722857Y-114880476D01*
X136818095Y-114880476D01*
X136960952Y-114928095D01*
X137532381Y-115499524D01*
X137532381Y-114880476D01*
X136532381Y-113975714D02*
X136532381Y-114451905D01*
X137008571Y-114499524D01*
X136960952Y-114451905D01*
X136913333Y-114356667D01*
X136913333Y-114118571D01*
X136960952Y-114023333D01*
X137008571Y-113975714D01*
X137103810Y-113928095D01*
X137341905Y-113928095D01*
X137437143Y-113975714D01*
X137484762Y-114023333D01*
X137532381Y-114118571D01*
X137532381Y-114356667D01*
X137484762Y-114451905D01*
X137437143Y-114499524D01*
X134742381Y-117309048D02*
X134742381Y-117213809D01*
X134790000Y-117118571D01*
X134837619Y-117070952D01*
X134932857Y-117023333D01*
X135123333Y-116975714D01*
X135361429Y-116975714D01*
X135551905Y-117023333D01*
X135647143Y-117070952D01*
X135694762Y-117118571D01*
X135742381Y-117213809D01*
X135742381Y-117309048D01*
X135694762Y-117404286D01*
X135647143Y-117451905D01*
X135551905Y-117499524D01*
X135361429Y-117547143D01*
X135123333Y-117547143D01*
X134932857Y-117499524D01*
X134837619Y-117451905D01*
X134790000Y-117404286D01*
X134742381Y-117309048D01*
X135647143Y-116547143D02*
X135694762Y-116499524D01*
X135742381Y-116547143D01*
X135694762Y-116594762D01*
X135647143Y-116547143D01*
X135742381Y-116547143D01*
X134742381Y-115880477D02*
X134742381Y-115785238D01*
X134790000Y-115690000D01*
X134837619Y-115642381D01*
X134932857Y-115594762D01*
X135123333Y-115547143D01*
X135361429Y-115547143D01*
X135551905Y-115594762D01*
X135647143Y-115642381D01*
X135694762Y-115690000D01*
X135742381Y-115785238D01*
X135742381Y-115880477D01*
X135694762Y-115975715D01*
X135647143Y-116023334D01*
X135551905Y-116070953D01*
X135361429Y-116118572D01*
X135123333Y-116118572D01*
X134932857Y-116070953D01*
X134837619Y-116023334D01*
X134790000Y-115975715D01*
X134742381Y-115880477D01*
X135742381Y-114594762D02*
X135742381Y-115166191D01*
X135742381Y-114880477D02*
X134742381Y-114880477D01*
X134885238Y-114975715D01*
X134980476Y-115070953D01*
X135028095Y-115166191D01*
X135075714Y-113737619D02*
X135742381Y-113737619D01*
X135075714Y-114166191D02*
X135599524Y-114166191D01*
X135694762Y-114118572D01*
X135742381Y-114023334D01*
X135742381Y-113880476D01*
X135694762Y-113785238D01*
X135647143Y-113737619D01*
X135218571Y-112928095D02*
X135218571Y-113261429D01*
X135742381Y-113261429D02*
X134742381Y-113261429D01*
X134742381Y-112785238D01*
X139437143Y-115832857D02*
X139484762Y-115880476D01*
X139532381Y-116023333D01*
X139532381Y-116118571D01*
X139484762Y-116261429D01*
X139389524Y-116356667D01*
X139294286Y-116404286D01*
X139103810Y-116451905D01*
X138960952Y-116451905D01*
X138770476Y-116404286D01*
X138675238Y-116356667D01*
X138580000Y-116261429D01*
X138532381Y-116118571D01*
X138532381Y-116023333D01*
X138580000Y-115880476D01*
X138627619Y-115832857D01*
X138627619Y-115451905D02*
X138580000Y-115404286D01*
X138532381Y-115309048D01*
X138532381Y-115070952D01*
X138580000Y-114975714D01*
X138627619Y-114928095D01*
X138722857Y-114880476D01*
X138818095Y-114880476D01*
X138960952Y-114928095D01*
X139532381Y-115499524D01*
X139532381Y-114880476D01*
X138532381Y-114023333D02*
X138532381Y-114213810D01*
X138580000Y-114309048D01*
X138627619Y-114356667D01*
X138770476Y-114451905D01*
X138960952Y-114499524D01*
X139341905Y-114499524D01*
X139437143Y-114451905D01*
X139484762Y-114404286D01*
X139532381Y-114309048D01*
X139532381Y-114118571D01*
X139484762Y-114023333D01*
X139437143Y-113975714D01*
X139341905Y-113928095D01*
X139103810Y-113928095D01*
X139008571Y-113975714D01*
X138960952Y-114023333D01*
X138913333Y-114118571D01*
X138913333Y-114309048D01*
X138960952Y-114404286D01*
X139008571Y-114451905D01*
X139103810Y-114499524D01*
X137782381Y-116792857D02*
X137782381Y-116697618D01*
X137830000Y-116602380D01*
X137877619Y-116554761D01*
X137972857Y-116507142D01*
X138163333Y-116459523D01*
X138401429Y-116459523D01*
X138591905Y-116507142D01*
X138687143Y-116554761D01*
X138734762Y-116602380D01*
X138782381Y-116697618D01*
X138782381Y-116792857D01*
X138734762Y-116888095D01*
X138687143Y-116935714D01*
X138591905Y-116983333D01*
X138401429Y-117030952D01*
X138163333Y-117030952D01*
X137972857Y-116983333D01*
X137877619Y-116935714D01*
X137830000Y-116888095D01*
X137782381Y-116792857D01*
X138687143Y-116030952D02*
X138734762Y-115983333D01*
X138782381Y-116030952D01*
X138734762Y-116078571D01*
X138687143Y-116030952D01*
X138782381Y-116030952D01*
X138782381Y-115030952D02*
X138782381Y-115602381D01*
X138782381Y-115316667D02*
X137782381Y-115316667D01*
X137925238Y-115411905D01*
X138020476Y-115507143D01*
X138068095Y-115602381D01*
X138115714Y-114173809D02*
X138782381Y-114173809D01*
X138115714Y-114602381D02*
X138639524Y-114602381D01*
X138734762Y-114554762D01*
X138782381Y-114459524D01*
X138782381Y-114316666D01*
X138734762Y-114221428D01*
X138687143Y-114173809D01*
X138258571Y-113364285D02*
X138258571Y-113697619D01*
X138782381Y-113697619D02*
X137782381Y-113697619D01*
X137782381Y-113221428D01*
X141437143Y-115792857D02*
X141484762Y-115840476D01*
X141532381Y-115983333D01*
X141532381Y-116078571D01*
X141484762Y-116221429D01*
X141389524Y-116316667D01*
X141294286Y-116364286D01*
X141103810Y-116411905D01*
X140960952Y-116411905D01*
X140770476Y-116364286D01*
X140675238Y-116316667D01*
X140580000Y-116221429D01*
X140532381Y-116078571D01*
X140532381Y-115983333D01*
X140580000Y-115840476D01*
X140627619Y-115792857D01*
X140627619Y-115411905D02*
X140580000Y-115364286D01*
X140532381Y-115269048D01*
X140532381Y-115030952D01*
X140580000Y-114935714D01*
X140627619Y-114888095D01*
X140722857Y-114840476D01*
X140818095Y-114840476D01*
X140960952Y-114888095D01*
X141532381Y-115459524D01*
X141532381Y-114840476D01*
X140960952Y-114269048D02*
X140913333Y-114364286D01*
X140865714Y-114411905D01*
X140770476Y-114459524D01*
X140722857Y-114459524D01*
X140627619Y-114411905D01*
X140580000Y-114364286D01*
X140532381Y-114269048D01*
X140532381Y-114078571D01*
X140580000Y-113983333D01*
X140627619Y-113935714D01*
X140722857Y-113888095D01*
X140770476Y-113888095D01*
X140865714Y-113935714D01*
X140913333Y-113983333D01*
X140960952Y-114078571D01*
X140960952Y-114269048D01*
X141008571Y-114364286D01*
X141056190Y-114411905D01*
X141151429Y-114459524D01*
X141341905Y-114459524D01*
X141437143Y-114411905D01*
X141484762Y-114364286D01*
X141532381Y-114269048D01*
X141532381Y-114078571D01*
X141484762Y-113983333D01*
X141437143Y-113935714D01*
X141341905Y-113888095D01*
X141151429Y-113888095D01*
X141056190Y-113935714D01*
X141008571Y-113983333D01*
X140960952Y-114078571D01*
X129994286Y-113742381D02*
X129518095Y-113742381D01*
X129470476Y-114218571D01*
X129518095Y-114170952D01*
X129613333Y-114123333D01*
X129851429Y-114123333D01*
X129946667Y-114170952D01*
X129994286Y-114218571D01*
X130041905Y-114313810D01*
X130041905Y-114551905D01*
X129994286Y-114647143D01*
X129946667Y-114694762D01*
X129851429Y-114742381D01*
X129613333Y-114742381D01*
X129518095Y-114694762D01*
X129470476Y-114647143D01*
X131422857Y-113742381D02*
X131613334Y-113742381D01*
X131708572Y-113790000D01*
X131803810Y-113885238D01*
X131851429Y-114075714D01*
X131851429Y-114409048D01*
X131803810Y-114599524D01*
X131708572Y-114694762D01*
X131613334Y-114742381D01*
X131422857Y-114742381D01*
X131327619Y-114694762D01*
X131232381Y-114599524D01*
X131184762Y-114409048D01*
X131184762Y-114075714D01*
X131232381Y-113885238D01*
X131327619Y-113790000D01*
X131422857Y-113742381D01*
X132280000Y-114742381D02*
X132280000Y-113742381D01*
X132708572Y-114742381D02*
X132708572Y-114218571D01*
X132660953Y-114123333D01*
X132565715Y-114075714D01*
X132422857Y-114075714D01*
X132327619Y-114123333D01*
X132280000Y-114170952D01*
X133184762Y-114742381D02*
X133184762Y-114075714D01*
X133184762Y-114170952D02*
X133232381Y-114123333D01*
X133327619Y-114075714D01*
X133470477Y-114075714D01*
X133565715Y-114123333D01*
X133613334Y-114218571D01*
X133613334Y-114742381D01*
X133613334Y-114218571D02*
X133660953Y-114123333D01*
X133756191Y-114075714D01*
X133899048Y-114075714D01*
X133994286Y-114123333D01*
X134041905Y-114218571D01*
X134041905Y-114742381D01*
X131613334Y-111242381D02*
X131137143Y-111242381D01*
X131137143Y-110242381D01*
X132470477Y-111242381D02*
X131899048Y-111242381D01*
X132184762Y-111242381D02*
X132184762Y-110242381D01*
X132089524Y-110385238D01*
X131994286Y-110480476D01*
X131899048Y-110528095D01*
X171236191Y-124607143D02*
X171188572Y-124654762D01*
X171045715Y-124702381D01*
X170950477Y-124702381D01*
X170807619Y-124654762D01*
X170712381Y-124559524D01*
X170664762Y-124464286D01*
X170617143Y-124273810D01*
X170617143Y-124130952D01*
X170664762Y-123940476D01*
X170712381Y-123845238D01*
X170807619Y-123750000D01*
X170950477Y-123702381D01*
X171045715Y-123702381D01*
X171188572Y-123750000D01*
X171236191Y-123797619D01*
X171855238Y-123702381D02*
X172045715Y-123702381D01*
X172140953Y-123750000D01*
X172236191Y-123845238D01*
X172283810Y-124035714D01*
X172283810Y-124369048D01*
X172236191Y-124559524D01*
X172140953Y-124654762D01*
X172045715Y-124702381D01*
X171855238Y-124702381D01*
X171760000Y-124654762D01*
X171664762Y-124559524D01*
X171617143Y-124369048D01*
X171617143Y-124035714D01*
X171664762Y-123845238D01*
X171760000Y-123750000D01*
X171855238Y-123702381D01*
X172712381Y-124702381D02*
X172712381Y-123702381D01*
X173283810Y-124702381D01*
X173283810Y-123702381D01*
X173760000Y-124702381D02*
X173760000Y-123702381D01*
X174331429Y-124702381D01*
X174331429Y-123702381D01*
X174569524Y-124797619D02*
X175331429Y-124797619D01*
X175760000Y-123702381D02*
X175855239Y-123702381D01*
X175950477Y-123750000D01*
X175998096Y-123797619D01*
X176045715Y-123892857D01*
X176093334Y-124083333D01*
X176093334Y-124321429D01*
X176045715Y-124511905D01*
X175998096Y-124607143D01*
X175950477Y-124654762D01*
X175855239Y-124702381D01*
X175760000Y-124702381D01*
X175664762Y-124654762D01*
X175617143Y-124607143D01*
X175569524Y-124511905D01*
X175521905Y-124321429D01*
X175521905Y-124083333D01*
X175569524Y-123892857D01*
X175617143Y-123797619D01*
X175664762Y-123750000D01*
X175760000Y-123702381D01*
X177045715Y-124702381D02*
X176474286Y-124702381D01*
X176760000Y-124702381D02*
X176760000Y-123702381D01*
X176664762Y-123845238D01*
X176569524Y-123940476D01*
X176474286Y-123988095D01*
X177379048Y-123702381D02*
X178045715Y-124702381D01*
X178045715Y-123702381D02*
X177379048Y-124702381D01*
X178950477Y-124702381D02*
X178379048Y-124702381D01*
X178664762Y-124702381D02*
X178664762Y-123702381D01*
X178569524Y-123845238D01*
X178474286Y-123940476D01*
X178379048Y-123988095D01*
X179807620Y-123702381D02*
X179617143Y-123702381D01*
X179521905Y-123750000D01*
X179474286Y-123797619D01*
X179379048Y-123940476D01*
X179331429Y-124130952D01*
X179331429Y-124511905D01*
X179379048Y-124607143D01*
X179426667Y-124654762D01*
X179521905Y-124702381D01*
X179712382Y-124702381D01*
X179807620Y-124654762D01*
X179855239Y-124607143D01*
X179902858Y-124511905D01*
X179902858Y-124273810D01*
X179855239Y-124178571D01*
X179807620Y-124130952D01*
X179712382Y-124083333D01*
X179521905Y-124083333D01*
X179426667Y-124130952D01*
X179379048Y-124178571D01*
X179331429Y-124273810D01*
X174521905Y-81942381D02*
X174521905Y-80942381D01*
X174902858Y-80942381D01*
X174998096Y-80990000D01*
X175045715Y-81037619D01*
X175093334Y-81132857D01*
X175093334Y-81275714D01*
X175045715Y-81370952D01*
X174998096Y-81418571D01*
X174902858Y-81466190D01*
X174521905Y-81466190D01*
X175474286Y-81037619D02*
X175521905Y-80990000D01*
X175617143Y-80942381D01*
X175855239Y-80942381D01*
X175950477Y-80990000D01*
X175998096Y-81037619D01*
X176045715Y-81132857D01*
X176045715Y-81228095D01*
X175998096Y-81370952D01*
X175426667Y-81942381D01*
X176045715Y-81942381D01*
X148297619Y-86066667D02*
X148250000Y-86019048D01*
X148202381Y-85923810D01*
X148202381Y-85685714D01*
X148250000Y-85590476D01*
X148297619Y-85542857D01*
X148392857Y-85495238D01*
X148488095Y-85495238D01*
X148630952Y-85542857D01*
X149202381Y-86114286D01*
X149202381Y-85495238D01*
X149202381Y-85066667D02*
X148202381Y-85066667D01*
X148821429Y-84971429D02*
X149202381Y-84685714D01*
X148535714Y-84685714D02*
X148916667Y-85066667D01*
X148297619Y-84304762D02*
X148250000Y-84257143D01*
X148202381Y-84161905D01*
X148202381Y-83923809D01*
X148250000Y-83828571D01*
X148297619Y-83780952D01*
X148392857Y-83733333D01*
X148488095Y-83733333D01*
X148630952Y-83780952D01*
X149202381Y-84352381D01*
X149202381Y-83733333D01*
D12*
X147426190Y-84983333D02*
X147188095Y-85150000D01*
X147426190Y-85269047D02*
X146926190Y-85269047D01*
X146926190Y-85078571D01*
X146950000Y-85030952D01*
X146973810Y-85007143D01*
X147021429Y-84983333D01*
X147092857Y-84983333D01*
X147140476Y-85007143D01*
X147164286Y-85030952D01*
X147188095Y-85078571D01*
X147188095Y-85269047D01*
X147426190Y-84507143D02*
X147426190Y-84792857D01*
X147426190Y-84650000D02*
X146926190Y-84650000D01*
X146997619Y-84697619D01*
X147045238Y-84745238D01*
X147069048Y-84792857D01*
D11*
X148297619Y-96666667D02*
X148250000Y-96619048D01*
X148202381Y-96523810D01*
X148202381Y-96285714D01*
X148250000Y-96190476D01*
X148297619Y-96142857D01*
X148392857Y-96095238D01*
X148488095Y-96095238D01*
X148630952Y-96142857D01*
X149202381Y-96714286D01*
X149202381Y-96095238D01*
X149202381Y-95666667D02*
X148202381Y-95666667D01*
X148821429Y-95571429D02*
X149202381Y-95285714D01*
X148535714Y-95285714D02*
X148916667Y-95666667D01*
X148297619Y-94904762D02*
X148250000Y-94857143D01*
X148202381Y-94761905D01*
X148202381Y-94523809D01*
X148250000Y-94428571D01*
X148297619Y-94380952D01*
X148392857Y-94333333D01*
X148488095Y-94333333D01*
X148630952Y-94380952D01*
X149202381Y-94952381D01*
X149202381Y-94333333D01*
D12*
X147426190Y-95583333D02*
X147188095Y-95750000D01*
X147426190Y-95869047D02*
X146926190Y-95869047D01*
X146926190Y-95678571D01*
X146950000Y-95630952D01*
X146973810Y-95607143D01*
X147021429Y-95583333D01*
X147092857Y-95583333D01*
X147140476Y-95607143D01*
X147164286Y-95630952D01*
X147188095Y-95678571D01*
X147188095Y-95869047D01*
X146973810Y-95392857D02*
X146950000Y-95369047D01*
X146926190Y-95321428D01*
X146926190Y-95202381D01*
X146950000Y-95154762D01*
X146973810Y-95130952D01*
X147021429Y-95107143D01*
X147069048Y-95107143D01*
X147140476Y-95130952D01*
X147426190Y-95416666D01*
X147426190Y-95107143D01*
D11*
X151097619Y-106666667D02*
X151050000Y-106619048D01*
X151002381Y-106523810D01*
X151002381Y-106285714D01*
X151050000Y-106190476D01*
X151097619Y-106142857D01*
X151192857Y-106095238D01*
X151288095Y-106095238D01*
X151430952Y-106142857D01*
X152002381Y-106714286D01*
X152002381Y-106095238D01*
X152002381Y-105666667D02*
X151002381Y-105666667D01*
X151621429Y-105571429D02*
X152002381Y-105285714D01*
X151335714Y-105285714D02*
X151716667Y-105666667D01*
X151097619Y-104904762D02*
X151050000Y-104857143D01*
X151002381Y-104761905D01*
X151002381Y-104523809D01*
X151050000Y-104428571D01*
X151097619Y-104380952D01*
X151192857Y-104333333D01*
X151288095Y-104333333D01*
X151430952Y-104380952D01*
X152002381Y-104952381D01*
X152002381Y-104333333D01*
D12*
X150226190Y-105583333D02*
X149988095Y-105750000D01*
X150226190Y-105869047D02*
X149726190Y-105869047D01*
X149726190Y-105678571D01*
X149750000Y-105630952D01*
X149773810Y-105607143D01*
X149821429Y-105583333D01*
X149892857Y-105583333D01*
X149940476Y-105607143D01*
X149964286Y-105630952D01*
X149988095Y-105678571D01*
X149988095Y-105869047D01*
X149726190Y-105416666D02*
X149726190Y-105107143D01*
X149916667Y-105273809D01*
X149916667Y-105202381D01*
X149940476Y-105154762D01*
X149964286Y-105130952D01*
X150011905Y-105107143D01*
X150130952Y-105107143D01*
X150178571Y-105130952D01*
X150202381Y-105154762D01*
X150226190Y-105202381D01*
X150226190Y-105345238D01*
X150202381Y-105392857D01*
X150178571Y-105416666D01*
D11*
X151097619Y-116866667D02*
X151050000Y-116819048D01*
X151002381Y-116723810D01*
X151002381Y-116485714D01*
X151050000Y-116390476D01*
X151097619Y-116342857D01*
X151192857Y-116295238D01*
X151288095Y-116295238D01*
X151430952Y-116342857D01*
X152002381Y-116914286D01*
X152002381Y-116295238D01*
X152002381Y-115866667D02*
X151002381Y-115866667D01*
X151621429Y-115771429D02*
X152002381Y-115485714D01*
X151335714Y-115485714D02*
X151716667Y-115866667D01*
X151097619Y-115104762D02*
X151050000Y-115057143D01*
X151002381Y-114961905D01*
X151002381Y-114723809D01*
X151050000Y-114628571D01*
X151097619Y-114580952D01*
X151192857Y-114533333D01*
X151288095Y-114533333D01*
X151430952Y-114580952D01*
X152002381Y-115152381D01*
X152002381Y-114533333D01*
D12*
X150226190Y-115783333D02*
X149988095Y-115950000D01*
X150226190Y-116069047D02*
X149726190Y-116069047D01*
X149726190Y-115878571D01*
X149750000Y-115830952D01*
X149773810Y-115807143D01*
X149821429Y-115783333D01*
X149892857Y-115783333D01*
X149940476Y-115807143D01*
X149964286Y-115830952D01*
X149988095Y-115878571D01*
X149988095Y-116069047D01*
X149892857Y-115354762D02*
X150226190Y-115354762D01*
X149702381Y-115473809D02*
X150059524Y-115592857D01*
X150059524Y-115283333D01*
D11*
X151097619Y-86066667D02*
X151050000Y-86019048D01*
X151002381Y-85923810D01*
X151002381Y-85685714D01*
X151050000Y-85590476D01*
X151097619Y-85542857D01*
X151192857Y-85495238D01*
X151288095Y-85495238D01*
X151430952Y-85542857D01*
X152002381Y-86114286D01*
X152002381Y-85495238D01*
X152002381Y-85066667D02*
X151002381Y-85066667D01*
X151621429Y-84971429D02*
X152002381Y-84685714D01*
X151335714Y-84685714D02*
X151716667Y-85066667D01*
X151097619Y-84304762D02*
X151050000Y-84257143D01*
X151002381Y-84161905D01*
X151002381Y-83923809D01*
X151050000Y-83828571D01*
X151097619Y-83780952D01*
X151192857Y-83733333D01*
X151288095Y-83733333D01*
X151430952Y-83780952D01*
X152002381Y-84352381D01*
X152002381Y-83733333D01*
D12*
X150226190Y-84983333D02*
X149988095Y-85150000D01*
X150226190Y-85269047D02*
X149726190Y-85269047D01*
X149726190Y-85078571D01*
X149750000Y-85030952D01*
X149773810Y-85007143D01*
X149821429Y-84983333D01*
X149892857Y-84983333D01*
X149940476Y-85007143D01*
X149964286Y-85030952D01*
X149988095Y-85078571D01*
X149988095Y-85269047D01*
X149726190Y-84530952D02*
X149726190Y-84769047D01*
X149964286Y-84792857D01*
X149940476Y-84769047D01*
X149916667Y-84721428D01*
X149916667Y-84602381D01*
X149940476Y-84554762D01*
X149964286Y-84530952D01*
X150011905Y-84507143D01*
X150130952Y-84507143D01*
X150178571Y-84530952D01*
X150202381Y-84554762D01*
X150226190Y-84602381D01*
X150226190Y-84721428D01*
X150202381Y-84769047D01*
X150178571Y-84792857D01*
D11*
X151097619Y-96666667D02*
X151050000Y-96619048D01*
X151002381Y-96523810D01*
X151002381Y-96285714D01*
X151050000Y-96190476D01*
X151097619Y-96142857D01*
X151192857Y-96095238D01*
X151288095Y-96095238D01*
X151430952Y-96142857D01*
X152002381Y-96714286D01*
X152002381Y-96095238D01*
X152002381Y-95666667D02*
X151002381Y-95666667D01*
X151621429Y-95571429D02*
X152002381Y-95285714D01*
X151335714Y-95285714D02*
X151716667Y-95666667D01*
X151097619Y-94904762D02*
X151050000Y-94857143D01*
X151002381Y-94761905D01*
X151002381Y-94523809D01*
X151050000Y-94428571D01*
X151097619Y-94380952D01*
X151192857Y-94333333D01*
X151288095Y-94333333D01*
X151430952Y-94380952D01*
X152002381Y-94952381D01*
X152002381Y-94333333D01*
D12*
X150226190Y-95583333D02*
X149988095Y-95750000D01*
X150226190Y-95869047D02*
X149726190Y-95869047D01*
X149726190Y-95678571D01*
X149750000Y-95630952D01*
X149773810Y-95607143D01*
X149821429Y-95583333D01*
X149892857Y-95583333D01*
X149940476Y-95607143D01*
X149964286Y-95630952D01*
X149988095Y-95678571D01*
X149988095Y-95869047D01*
X149726190Y-95154762D02*
X149726190Y-95250000D01*
X149750000Y-95297619D01*
X149773810Y-95321428D01*
X149845238Y-95369047D01*
X149940476Y-95392857D01*
X150130952Y-95392857D01*
X150178571Y-95369047D01*
X150202381Y-95345238D01*
X150226190Y-95297619D01*
X150226190Y-95202381D01*
X150202381Y-95154762D01*
X150178571Y-95130952D01*
X150130952Y-95107143D01*
X150011905Y-95107143D01*
X149964286Y-95130952D01*
X149940476Y-95154762D01*
X149916667Y-95202381D01*
X149916667Y-95297619D01*
X149940476Y-95345238D01*
X149964286Y-95369047D01*
X150011905Y-95392857D01*
D11*
X148297619Y-106666667D02*
X148250000Y-106619048D01*
X148202381Y-106523810D01*
X148202381Y-106285714D01*
X148250000Y-106190476D01*
X148297619Y-106142857D01*
X148392857Y-106095238D01*
X148488095Y-106095238D01*
X148630952Y-106142857D01*
X149202381Y-106714286D01*
X149202381Y-106095238D01*
X149202381Y-105666667D02*
X148202381Y-105666667D01*
X148821429Y-105571429D02*
X149202381Y-105285714D01*
X148535714Y-105285714D02*
X148916667Y-105666667D01*
X148297619Y-104904762D02*
X148250000Y-104857143D01*
X148202381Y-104761905D01*
X148202381Y-104523809D01*
X148250000Y-104428571D01*
X148297619Y-104380952D01*
X148392857Y-104333333D01*
X148488095Y-104333333D01*
X148630952Y-104380952D01*
X149202381Y-104952381D01*
X149202381Y-104333333D01*
D12*
X147426190Y-105583333D02*
X147188095Y-105750000D01*
X147426190Y-105869047D02*
X146926190Y-105869047D01*
X146926190Y-105678571D01*
X146950000Y-105630952D01*
X146973810Y-105607143D01*
X147021429Y-105583333D01*
X147092857Y-105583333D01*
X147140476Y-105607143D01*
X147164286Y-105630952D01*
X147188095Y-105678571D01*
X147188095Y-105869047D01*
X146926190Y-105416666D02*
X146926190Y-105083333D01*
X147426190Y-105297619D01*
D11*
X148497619Y-116866667D02*
X148450000Y-116819048D01*
X148402381Y-116723810D01*
X148402381Y-116485714D01*
X148450000Y-116390476D01*
X148497619Y-116342857D01*
X148592857Y-116295238D01*
X148688095Y-116295238D01*
X148830952Y-116342857D01*
X149402381Y-116914286D01*
X149402381Y-116295238D01*
X149402381Y-115866667D02*
X148402381Y-115866667D01*
X149021429Y-115771429D02*
X149402381Y-115485714D01*
X148735714Y-115485714D02*
X149116667Y-115866667D01*
X148497619Y-115104762D02*
X148450000Y-115057143D01*
X148402381Y-114961905D01*
X148402381Y-114723809D01*
X148450000Y-114628571D01*
X148497619Y-114580952D01*
X148592857Y-114533333D01*
X148688095Y-114533333D01*
X148830952Y-114580952D01*
X149402381Y-115152381D01*
X149402381Y-114533333D01*
D12*
X147626190Y-115783333D02*
X147388095Y-115950000D01*
X147626190Y-116069047D02*
X147126190Y-116069047D01*
X147126190Y-115878571D01*
X147150000Y-115830952D01*
X147173810Y-115807143D01*
X147221429Y-115783333D01*
X147292857Y-115783333D01*
X147340476Y-115807143D01*
X147364286Y-115830952D01*
X147388095Y-115878571D01*
X147388095Y-116069047D01*
X147340476Y-115497619D02*
X147316667Y-115545238D01*
X147292857Y-115569047D01*
X147245238Y-115592857D01*
X147221429Y-115592857D01*
X147173810Y-115569047D01*
X147150000Y-115545238D01*
X147126190Y-115497619D01*
X147126190Y-115402381D01*
X147150000Y-115354762D01*
X147173810Y-115330952D01*
X147221429Y-115307143D01*
X147245238Y-115307143D01*
X147292857Y-115330952D01*
X147316667Y-115354762D01*
X147340476Y-115402381D01*
X147340476Y-115497619D01*
X147364286Y-115545238D01*
X147388095Y-115569047D01*
X147435714Y-115592857D01*
X147530952Y-115592857D01*
X147578571Y-115569047D01*
X147602381Y-115545238D01*
X147626190Y-115497619D01*
X147626190Y-115402381D01*
X147602381Y-115354762D01*
X147578571Y-115330952D01*
X147530952Y-115307143D01*
X147435714Y-115307143D01*
X147388095Y-115330952D01*
X147364286Y-115354762D01*
X147340476Y-115402381D01*
D11*
X148297619Y-91266667D02*
X148250000Y-91219048D01*
X148202381Y-91123810D01*
X148202381Y-90885714D01*
X148250000Y-90790476D01*
X148297619Y-90742857D01*
X148392857Y-90695238D01*
X148488095Y-90695238D01*
X148630952Y-90742857D01*
X149202381Y-91314286D01*
X149202381Y-90695238D01*
X149202381Y-90266667D02*
X148202381Y-90266667D01*
X148821429Y-90171429D02*
X149202381Y-89885714D01*
X148535714Y-89885714D02*
X148916667Y-90266667D01*
X148297619Y-89504762D02*
X148250000Y-89457143D01*
X148202381Y-89361905D01*
X148202381Y-89123809D01*
X148250000Y-89028571D01*
X148297619Y-88980952D01*
X148392857Y-88933333D01*
X148488095Y-88933333D01*
X148630952Y-88980952D01*
X149202381Y-89552381D01*
X149202381Y-88933333D01*
D12*
X147426190Y-90183333D02*
X147188095Y-90350000D01*
X147426190Y-90469047D02*
X146926190Y-90469047D01*
X146926190Y-90278571D01*
X146950000Y-90230952D01*
X146973810Y-90207143D01*
X147021429Y-90183333D01*
X147092857Y-90183333D01*
X147140476Y-90207143D01*
X147164286Y-90230952D01*
X147188095Y-90278571D01*
X147188095Y-90469047D01*
X147426190Y-89945238D02*
X147426190Y-89850000D01*
X147402381Y-89802381D01*
X147378571Y-89778571D01*
X147307143Y-89730952D01*
X147211905Y-89707143D01*
X147021429Y-89707143D01*
X146973810Y-89730952D01*
X146950000Y-89754762D01*
X146926190Y-89802381D01*
X146926190Y-89897619D01*
X146950000Y-89945238D01*
X146973810Y-89969047D01*
X147021429Y-89992857D01*
X147140476Y-89992857D01*
X147188095Y-89969047D01*
X147211905Y-89945238D01*
X147235714Y-89897619D01*
X147235714Y-89802381D01*
X147211905Y-89754762D01*
X147188095Y-89730952D01*
X147140476Y-89707143D01*
D11*
X148297619Y-101326667D02*
X148250000Y-101279048D01*
X148202381Y-101183810D01*
X148202381Y-100945714D01*
X148250000Y-100850476D01*
X148297619Y-100802857D01*
X148392857Y-100755238D01*
X148488095Y-100755238D01*
X148630952Y-100802857D01*
X149202381Y-101374286D01*
X149202381Y-100755238D01*
X149202381Y-100326667D02*
X148202381Y-100326667D01*
X148821429Y-100231429D02*
X149202381Y-99945714D01*
X148535714Y-99945714D02*
X148916667Y-100326667D01*
X148297619Y-99564762D02*
X148250000Y-99517143D01*
X148202381Y-99421905D01*
X148202381Y-99183809D01*
X148250000Y-99088571D01*
X148297619Y-99040952D01*
X148392857Y-98993333D01*
X148488095Y-98993333D01*
X148630952Y-99040952D01*
X149202381Y-99612381D01*
X149202381Y-98993333D01*
D12*
X147426190Y-100481428D02*
X147188095Y-100648095D01*
X147426190Y-100767142D02*
X146926190Y-100767142D01*
X146926190Y-100576666D01*
X146950000Y-100529047D01*
X146973810Y-100505238D01*
X147021429Y-100481428D01*
X147092857Y-100481428D01*
X147140476Y-100505238D01*
X147164286Y-100529047D01*
X147188095Y-100576666D01*
X147188095Y-100767142D01*
X147426190Y-100005238D02*
X147426190Y-100290952D01*
X147426190Y-100148095D02*
X146926190Y-100148095D01*
X146997619Y-100195714D01*
X147045238Y-100243333D01*
X147069048Y-100290952D01*
X146926190Y-99695714D02*
X146926190Y-99648095D01*
X146950000Y-99600476D01*
X146973810Y-99576667D01*
X147021429Y-99552857D01*
X147116667Y-99529048D01*
X147235714Y-99529048D01*
X147330952Y-99552857D01*
X147378571Y-99576667D01*
X147402381Y-99600476D01*
X147426190Y-99648095D01*
X147426190Y-99695714D01*
X147402381Y-99743333D01*
X147378571Y-99767143D01*
X147330952Y-99790952D01*
X147235714Y-99814762D01*
X147116667Y-99814762D01*
X147021429Y-99790952D01*
X146973810Y-99767143D01*
X146950000Y-99743333D01*
X146926190Y-99695714D01*
D11*
X151097619Y-111766667D02*
X151050000Y-111719048D01*
X151002381Y-111623810D01*
X151002381Y-111385714D01*
X151050000Y-111290476D01*
X151097619Y-111242857D01*
X151192857Y-111195238D01*
X151288095Y-111195238D01*
X151430952Y-111242857D01*
X152002381Y-111814286D01*
X152002381Y-111195238D01*
X152002381Y-110766667D02*
X151002381Y-110766667D01*
X151621429Y-110671429D02*
X152002381Y-110385714D01*
X151335714Y-110385714D02*
X151716667Y-110766667D01*
X151097619Y-110004762D02*
X151050000Y-109957143D01*
X151002381Y-109861905D01*
X151002381Y-109623809D01*
X151050000Y-109528571D01*
X151097619Y-109480952D01*
X151192857Y-109433333D01*
X151288095Y-109433333D01*
X151430952Y-109480952D01*
X152002381Y-110052381D01*
X152002381Y-109433333D01*
D12*
X150226190Y-110921428D02*
X149988095Y-111088095D01*
X150226190Y-111207142D02*
X149726190Y-111207142D01*
X149726190Y-111016666D01*
X149750000Y-110969047D01*
X149773810Y-110945238D01*
X149821429Y-110921428D01*
X149892857Y-110921428D01*
X149940476Y-110945238D01*
X149964286Y-110969047D01*
X149988095Y-111016666D01*
X149988095Y-111207142D01*
X150226190Y-110445238D02*
X150226190Y-110730952D01*
X150226190Y-110588095D02*
X149726190Y-110588095D01*
X149797619Y-110635714D01*
X149845238Y-110683333D01*
X149869048Y-110730952D01*
X150226190Y-109969048D02*
X150226190Y-110254762D01*
X150226190Y-110111905D02*
X149726190Y-110111905D01*
X149797619Y-110159524D01*
X149845238Y-110207143D01*
X149869048Y-110254762D01*
D11*
X151097619Y-121966667D02*
X151050000Y-121919048D01*
X151002381Y-121823810D01*
X151002381Y-121585714D01*
X151050000Y-121490476D01*
X151097619Y-121442857D01*
X151192857Y-121395238D01*
X151288095Y-121395238D01*
X151430952Y-121442857D01*
X152002381Y-122014286D01*
X152002381Y-121395238D01*
X152002381Y-120966667D02*
X151002381Y-120966667D01*
X151621429Y-120871429D02*
X152002381Y-120585714D01*
X151335714Y-120585714D02*
X151716667Y-120966667D01*
X151097619Y-120204762D02*
X151050000Y-120157143D01*
X151002381Y-120061905D01*
X151002381Y-119823809D01*
X151050000Y-119728571D01*
X151097619Y-119680952D01*
X151192857Y-119633333D01*
X151288095Y-119633333D01*
X151430952Y-119680952D01*
X152002381Y-120252381D01*
X152002381Y-119633333D01*
D12*
X150226190Y-121121428D02*
X149988095Y-121288095D01*
X150226190Y-121407142D02*
X149726190Y-121407142D01*
X149726190Y-121216666D01*
X149750000Y-121169047D01*
X149773810Y-121145238D01*
X149821429Y-121121428D01*
X149892857Y-121121428D01*
X149940476Y-121145238D01*
X149964286Y-121169047D01*
X149988095Y-121216666D01*
X149988095Y-121407142D01*
X150226190Y-120645238D02*
X150226190Y-120930952D01*
X150226190Y-120788095D02*
X149726190Y-120788095D01*
X149797619Y-120835714D01*
X149845238Y-120883333D01*
X149869048Y-120930952D01*
X149773810Y-120454762D02*
X149750000Y-120430952D01*
X149726190Y-120383333D01*
X149726190Y-120264286D01*
X149750000Y-120216667D01*
X149773810Y-120192857D01*
X149821429Y-120169048D01*
X149869048Y-120169048D01*
X149940476Y-120192857D01*
X150226190Y-120478571D01*
X150226190Y-120169048D01*
D11*
X151097619Y-91266667D02*
X151050000Y-91219048D01*
X151002381Y-91123810D01*
X151002381Y-90885714D01*
X151050000Y-90790476D01*
X151097619Y-90742857D01*
X151192857Y-90695238D01*
X151288095Y-90695238D01*
X151430952Y-90742857D01*
X152002381Y-91314286D01*
X152002381Y-90695238D01*
X152002381Y-90266667D02*
X151002381Y-90266667D01*
X151621429Y-90171429D02*
X152002381Y-89885714D01*
X151335714Y-89885714D02*
X151716667Y-90266667D01*
X151097619Y-89504762D02*
X151050000Y-89457143D01*
X151002381Y-89361905D01*
X151002381Y-89123809D01*
X151050000Y-89028571D01*
X151097619Y-88980952D01*
X151192857Y-88933333D01*
X151288095Y-88933333D01*
X151430952Y-88980952D01*
X152002381Y-89552381D01*
X152002381Y-88933333D01*
D12*
X150226190Y-90421428D02*
X149988095Y-90588095D01*
X150226190Y-90707142D02*
X149726190Y-90707142D01*
X149726190Y-90516666D01*
X149750000Y-90469047D01*
X149773810Y-90445238D01*
X149821429Y-90421428D01*
X149892857Y-90421428D01*
X149940476Y-90445238D01*
X149964286Y-90469047D01*
X149988095Y-90516666D01*
X149988095Y-90707142D01*
X150226190Y-89945238D02*
X150226190Y-90230952D01*
X150226190Y-90088095D02*
X149726190Y-90088095D01*
X149797619Y-90135714D01*
X149845238Y-90183333D01*
X149869048Y-90230952D01*
X149726190Y-89778571D02*
X149726190Y-89469048D01*
X149916667Y-89635714D01*
X149916667Y-89564286D01*
X149940476Y-89516667D01*
X149964286Y-89492857D01*
X150011905Y-89469048D01*
X150130952Y-89469048D01*
X150178571Y-89492857D01*
X150202381Y-89516667D01*
X150226190Y-89564286D01*
X150226190Y-89707143D01*
X150202381Y-89754762D01*
X150178571Y-89778571D01*
D11*
X151097619Y-101326667D02*
X151050000Y-101279048D01*
X151002381Y-101183810D01*
X151002381Y-100945714D01*
X151050000Y-100850476D01*
X151097619Y-100802857D01*
X151192857Y-100755238D01*
X151288095Y-100755238D01*
X151430952Y-100802857D01*
X152002381Y-101374286D01*
X152002381Y-100755238D01*
X152002381Y-100326667D02*
X151002381Y-100326667D01*
X151621429Y-100231429D02*
X152002381Y-99945714D01*
X151335714Y-99945714D02*
X151716667Y-100326667D01*
X151097619Y-99564762D02*
X151050000Y-99517143D01*
X151002381Y-99421905D01*
X151002381Y-99183809D01*
X151050000Y-99088571D01*
X151097619Y-99040952D01*
X151192857Y-98993333D01*
X151288095Y-98993333D01*
X151430952Y-99040952D01*
X152002381Y-99612381D01*
X152002381Y-98993333D01*
D12*
X150226190Y-100481428D02*
X149988095Y-100648095D01*
X150226190Y-100767142D02*
X149726190Y-100767142D01*
X149726190Y-100576666D01*
X149750000Y-100529047D01*
X149773810Y-100505238D01*
X149821429Y-100481428D01*
X149892857Y-100481428D01*
X149940476Y-100505238D01*
X149964286Y-100529047D01*
X149988095Y-100576666D01*
X149988095Y-100767142D01*
X150226190Y-100005238D02*
X150226190Y-100290952D01*
X150226190Y-100148095D02*
X149726190Y-100148095D01*
X149797619Y-100195714D01*
X149845238Y-100243333D01*
X149869048Y-100290952D01*
X149892857Y-99576667D02*
X150226190Y-99576667D01*
X149702381Y-99695714D02*
X150059524Y-99814762D01*
X150059524Y-99505238D01*
D11*
X148497619Y-111766667D02*
X148450000Y-111719048D01*
X148402381Y-111623810D01*
X148402381Y-111385714D01*
X148450000Y-111290476D01*
X148497619Y-111242857D01*
X148592857Y-111195238D01*
X148688095Y-111195238D01*
X148830952Y-111242857D01*
X149402381Y-111814286D01*
X149402381Y-111195238D01*
X149402381Y-110766667D02*
X148402381Y-110766667D01*
X149021429Y-110671429D02*
X149402381Y-110385714D01*
X148735714Y-110385714D02*
X149116667Y-110766667D01*
X148497619Y-110004762D02*
X148450000Y-109957143D01*
X148402381Y-109861905D01*
X148402381Y-109623809D01*
X148450000Y-109528571D01*
X148497619Y-109480952D01*
X148592857Y-109433333D01*
X148688095Y-109433333D01*
X148830952Y-109480952D01*
X149402381Y-110052381D01*
X149402381Y-109433333D01*
D12*
X147626190Y-110921428D02*
X147388095Y-111088095D01*
X147626190Y-111207142D02*
X147126190Y-111207142D01*
X147126190Y-111016666D01*
X147150000Y-110969047D01*
X147173810Y-110945238D01*
X147221429Y-110921428D01*
X147292857Y-110921428D01*
X147340476Y-110945238D01*
X147364286Y-110969047D01*
X147388095Y-111016666D01*
X147388095Y-111207142D01*
X147626190Y-110445238D02*
X147626190Y-110730952D01*
X147626190Y-110588095D02*
X147126190Y-110588095D01*
X147197619Y-110635714D01*
X147245238Y-110683333D01*
X147269048Y-110730952D01*
X147126190Y-109992857D02*
X147126190Y-110230952D01*
X147364286Y-110254762D01*
X147340476Y-110230952D01*
X147316667Y-110183333D01*
X147316667Y-110064286D01*
X147340476Y-110016667D01*
X147364286Y-109992857D01*
X147411905Y-109969048D01*
X147530952Y-109969048D01*
X147578571Y-109992857D01*
X147602381Y-110016667D01*
X147626190Y-110064286D01*
X147626190Y-110183333D01*
X147602381Y-110230952D01*
X147578571Y-110254762D01*
D11*
X148497619Y-121966667D02*
X148450000Y-121919048D01*
X148402381Y-121823810D01*
X148402381Y-121585714D01*
X148450000Y-121490476D01*
X148497619Y-121442857D01*
X148592857Y-121395238D01*
X148688095Y-121395238D01*
X148830952Y-121442857D01*
X149402381Y-122014286D01*
X149402381Y-121395238D01*
X149402381Y-120966667D02*
X148402381Y-120966667D01*
X149021429Y-120871429D02*
X149402381Y-120585714D01*
X148735714Y-120585714D02*
X149116667Y-120966667D01*
X148497619Y-120204762D02*
X148450000Y-120157143D01*
X148402381Y-120061905D01*
X148402381Y-119823809D01*
X148450000Y-119728571D01*
X148497619Y-119680952D01*
X148592857Y-119633333D01*
X148688095Y-119633333D01*
X148830952Y-119680952D01*
X149402381Y-120252381D01*
X149402381Y-119633333D01*
D12*
X147626190Y-121121428D02*
X147388095Y-121288095D01*
X147626190Y-121407142D02*
X147126190Y-121407142D01*
X147126190Y-121216666D01*
X147150000Y-121169047D01*
X147173810Y-121145238D01*
X147221429Y-121121428D01*
X147292857Y-121121428D01*
X147340476Y-121145238D01*
X147364286Y-121169047D01*
X147388095Y-121216666D01*
X147388095Y-121407142D01*
X147626190Y-120645238D02*
X147626190Y-120930952D01*
X147626190Y-120788095D02*
X147126190Y-120788095D01*
X147197619Y-120835714D01*
X147245238Y-120883333D01*
X147269048Y-120930952D01*
X147126190Y-120216667D02*
X147126190Y-120311905D01*
X147150000Y-120359524D01*
X147173810Y-120383333D01*
X147245238Y-120430952D01*
X147340476Y-120454762D01*
X147530952Y-120454762D01*
X147578571Y-120430952D01*
X147602381Y-120407143D01*
X147626190Y-120359524D01*
X147626190Y-120264286D01*
X147602381Y-120216667D01*
X147578571Y-120192857D01*
X147530952Y-120169048D01*
X147411905Y-120169048D01*
X147364286Y-120192857D01*
X147340476Y-120216667D01*
X147316667Y-120264286D01*
X147316667Y-120359524D01*
X147340476Y-120407143D01*
X147364286Y-120430952D01*
X147411905Y-120454762D01*
D11*
X132127381Y-105397619D02*
X132127381Y-104826190D01*
X133127381Y-105111905D02*
X132127381Y-105111905D01*
X133032143Y-103921428D02*
X133079762Y-103969047D01*
X133127381Y-104111904D01*
X133127381Y-104207142D01*
X133079762Y-104350000D01*
X132984524Y-104445238D01*
X132889286Y-104492857D01*
X132698810Y-104540476D01*
X132555952Y-104540476D01*
X132365476Y-104492857D01*
X132270238Y-104445238D01*
X132175000Y-104350000D01*
X132127381Y-104207142D01*
X132127381Y-104111904D01*
X132175000Y-103969047D01*
X132222619Y-103921428D01*
X132841667Y-103540476D02*
X132841667Y-103064285D01*
X133127381Y-103635714D02*
X132127381Y-103302381D01*
X133127381Y-102969047D01*
X133127381Y-102588095D02*
X133127381Y-102397619D01*
X133079762Y-102302380D01*
X133032143Y-102254761D01*
X132889286Y-102159523D01*
X132698810Y-102111904D01*
X132317857Y-102111904D01*
X132222619Y-102159523D01*
X132175000Y-102207142D01*
X132127381Y-102302380D01*
X132127381Y-102492857D01*
X132175000Y-102588095D01*
X132222619Y-102635714D01*
X132317857Y-102683333D01*
X132555952Y-102683333D01*
X132651190Y-102635714D01*
X132698810Y-102588095D01*
X132746429Y-102492857D01*
X132746429Y-102302380D01*
X132698810Y-102207142D01*
X132651190Y-102159523D01*
X132555952Y-102111904D01*
X132127381Y-101207142D02*
X132127381Y-101683333D01*
X132603571Y-101730952D01*
X132555952Y-101683333D01*
X132508333Y-101588095D01*
X132508333Y-101349999D01*
X132555952Y-101254761D01*
X132603571Y-101207142D01*
X132698810Y-101159523D01*
X132936905Y-101159523D01*
X133032143Y-101207142D01*
X133079762Y-101254761D01*
X133127381Y-101349999D01*
X133127381Y-101588095D01*
X133079762Y-101683333D01*
X133032143Y-101730952D01*
X132460714Y-100302380D02*
X133127381Y-100302380D01*
X132079762Y-100540476D02*
X132794048Y-100778571D01*
X132794048Y-100159523D01*
X132555952Y-99635714D02*
X132508333Y-99730952D01*
X132460714Y-99778571D01*
X132365476Y-99826190D01*
X132317857Y-99826190D01*
X132222619Y-99778571D01*
X132175000Y-99730952D01*
X132127381Y-99635714D01*
X132127381Y-99445237D01*
X132175000Y-99349999D01*
X132222619Y-99302380D01*
X132317857Y-99254761D01*
X132365476Y-99254761D01*
X132460714Y-99302380D01*
X132508333Y-99349999D01*
X132555952Y-99445237D01*
X132555952Y-99635714D01*
X132603571Y-99730952D01*
X132651190Y-99778571D01*
X132746429Y-99826190D01*
X132936905Y-99826190D01*
X133032143Y-99778571D01*
X133079762Y-99730952D01*
X133127381Y-99635714D01*
X133127381Y-99445237D01*
X133079762Y-99349999D01*
X133032143Y-99302380D01*
X132936905Y-99254761D01*
X132746429Y-99254761D01*
X132651190Y-99302380D01*
X132603571Y-99349999D01*
X132555952Y-99445237D01*
X132841667Y-98873809D02*
X132841667Y-98397618D01*
X133127381Y-98969047D02*
X132127381Y-98635714D01*
X133127381Y-98302380D01*
X137186905Y-102459524D02*
X137834524Y-102459524D01*
X137910714Y-102421429D01*
X137948810Y-102383333D01*
X137986905Y-102307143D01*
X137986905Y-102154762D01*
X137948810Y-102078571D01*
X137910714Y-102040476D01*
X137834524Y-102002381D01*
X137186905Y-102002381D01*
X137986905Y-101202381D02*
X137986905Y-101659524D01*
X137986905Y-101430953D02*
X137186905Y-101430953D01*
X137301190Y-101507143D01*
X137377381Y-101583334D01*
X137415476Y-101659524D01*
X161990000Y-88092381D02*
X161990000Y-87092381D01*
X162228095Y-87092381D01*
X162370953Y-87140000D01*
X162466191Y-87235238D01*
X162513810Y-87330476D01*
X162561429Y-87520952D01*
X162561429Y-87663810D01*
X162513810Y-87854286D01*
X162466191Y-87949524D01*
X162370953Y-88044762D01*
X162228095Y-88092381D01*
X161990000Y-88092381D01*
X163561429Y-88092381D02*
X163228095Y-87616190D01*
X162990000Y-88092381D02*
X162990000Y-87092381D01*
X163370953Y-87092381D01*
X163466191Y-87140000D01*
X163513810Y-87187619D01*
X163561429Y-87282857D01*
X163561429Y-87425714D01*
X163513810Y-87520952D01*
X163466191Y-87568571D01*
X163370953Y-87616190D01*
X162990000Y-87616190D01*
X163847143Y-87092381D02*
X164180476Y-88092381D01*
X164513810Y-87092381D01*
X164799524Y-87187619D02*
X164847143Y-87140000D01*
X164942381Y-87092381D01*
X165180477Y-87092381D01*
X165275715Y-87140000D01*
X165323334Y-87187619D01*
X165370953Y-87282857D01*
X165370953Y-87378095D01*
X165323334Y-87520952D01*
X164751905Y-88092381D01*
X165370953Y-88092381D01*
X166228096Y-87092381D02*
X166037619Y-87092381D01*
X165942381Y-87140000D01*
X165894762Y-87187619D01*
X165799524Y-87330476D01*
X165751905Y-87520952D01*
X165751905Y-87901905D01*
X165799524Y-87997143D01*
X165847143Y-88044762D01*
X165942381Y-88092381D01*
X166132858Y-88092381D01*
X166228096Y-88044762D01*
X166275715Y-87997143D01*
X166323334Y-87901905D01*
X166323334Y-87663810D01*
X166275715Y-87568571D01*
X166228096Y-87520952D01*
X166132858Y-87473333D01*
X165942381Y-87473333D01*
X165847143Y-87520952D01*
X165799524Y-87568571D01*
X165751905Y-87663810D01*
X166942381Y-87092381D02*
X167037620Y-87092381D01*
X167132858Y-87140000D01*
X167180477Y-87187619D01*
X167228096Y-87282857D01*
X167275715Y-87473333D01*
X167275715Y-87711429D01*
X167228096Y-87901905D01*
X167180477Y-87997143D01*
X167132858Y-88044762D01*
X167037620Y-88092381D01*
X166942381Y-88092381D01*
X166847143Y-88044762D01*
X166799524Y-87997143D01*
X166751905Y-87901905D01*
X166704286Y-87711429D01*
X166704286Y-87473333D01*
X166751905Y-87282857D01*
X166799524Y-87187619D01*
X166847143Y-87140000D01*
X166942381Y-87092381D01*
X168180477Y-87092381D02*
X167704286Y-87092381D01*
X167656667Y-87568571D01*
X167704286Y-87520952D01*
X167799524Y-87473333D01*
X168037620Y-87473333D01*
X168132858Y-87520952D01*
X168180477Y-87568571D01*
X168228096Y-87663810D01*
X168228096Y-87901905D01*
X168180477Y-87997143D01*
X168132858Y-88044762D01*
X168037620Y-88092381D01*
X167799524Y-88092381D01*
X167704286Y-88044762D01*
X167656667Y-87997143D01*
X169132858Y-88092381D02*
X168656667Y-88092381D01*
X168656667Y-87092381D01*
X165032857Y-84761429D02*
X165032857Y-85247143D01*
X165061429Y-85304286D01*
X165090000Y-85332857D01*
X165147143Y-85361429D01*
X165261429Y-85361429D01*
X165318571Y-85332857D01*
X165347143Y-85304286D01*
X165375714Y-85247143D01*
X165375714Y-84761429D01*
X165632857Y-84818571D02*
X165661428Y-84790000D01*
X165718571Y-84761429D01*
X165861428Y-84761429D01*
X165918571Y-84790000D01*
X165947142Y-84818571D01*
X165975714Y-84875714D01*
X165975714Y-84932857D01*
X165947142Y-85018571D01*
X165604285Y-85361429D01*
X165975714Y-85361429D01*
X161990000Y-98252381D02*
X161990000Y-97252381D01*
X162228095Y-97252381D01*
X162370953Y-97300000D01*
X162466191Y-97395238D01*
X162513810Y-97490476D01*
X162561429Y-97680952D01*
X162561429Y-97823810D01*
X162513810Y-98014286D01*
X162466191Y-98109524D01*
X162370953Y-98204762D01*
X162228095Y-98252381D01*
X161990000Y-98252381D01*
X163561429Y-98252381D02*
X163228095Y-97776190D01*
X162990000Y-98252381D02*
X162990000Y-97252381D01*
X163370953Y-97252381D01*
X163466191Y-97300000D01*
X163513810Y-97347619D01*
X163561429Y-97442857D01*
X163561429Y-97585714D01*
X163513810Y-97680952D01*
X163466191Y-97728571D01*
X163370953Y-97776190D01*
X162990000Y-97776190D01*
X163847143Y-97252381D02*
X164180476Y-98252381D01*
X164513810Y-97252381D01*
X164799524Y-97347619D02*
X164847143Y-97300000D01*
X164942381Y-97252381D01*
X165180477Y-97252381D01*
X165275715Y-97300000D01*
X165323334Y-97347619D01*
X165370953Y-97442857D01*
X165370953Y-97538095D01*
X165323334Y-97680952D01*
X164751905Y-98252381D01*
X165370953Y-98252381D01*
X166228096Y-97252381D02*
X166037619Y-97252381D01*
X165942381Y-97300000D01*
X165894762Y-97347619D01*
X165799524Y-97490476D01*
X165751905Y-97680952D01*
X165751905Y-98061905D01*
X165799524Y-98157143D01*
X165847143Y-98204762D01*
X165942381Y-98252381D01*
X166132858Y-98252381D01*
X166228096Y-98204762D01*
X166275715Y-98157143D01*
X166323334Y-98061905D01*
X166323334Y-97823810D01*
X166275715Y-97728571D01*
X166228096Y-97680952D01*
X166132858Y-97633333D01*
X165942381Y-97633333D01*
X165847143Y-97680952D01*
X165799524Y-97728571D01*
X165751905Y-97823810D01*
X166942381Y-97252381D02*
X167037620Y-97252381D01*
X167132858Y-97300000D01*
X167180477Y-97347619D01*
X167228096Y-97442857D01*
X167275715Y-97633333D01*
X167275715Y-97871429D01*
X167228096Y-98061905D01*
X167180477Y-98157143D01*
X167132858Y-98204762D01*
X167037620Y-98252381D01*
X166942381Y-98252381D01*
X166847143Y-98204762D01*
X166799524Y-98157143D01*
X166751905Y-98061905D01*
X166704286Y-97871429D01*
X166704286Y-97633333D01*
X166751905Y-97442857D01*
X166799524Y-97347619D01*
X166847143Y-97300000D01*
X166942381Y-97252381D01*
X168180477Y-97252381D02*
X167704286Y-97252381D01*
X167656667Y-97728571D01*
X167704286Y-97680952D01*
X167799524Y-97633333D01*
X168037620Y-97633333D01*
X168132858Y-97680952D01*
X168180477Y-97728571D01*
X168228096Y-97823810D01*
X168228096Y-98061905D01*
X168180477Y-98157143D01*
X168132858Y-98204762D01*
X168037620Y-98252381D01*
X167799524Y-98252381D01*
X167704286Y-98204762D01*
X167656667Y-98157143D01*
X169132858Y-98252381D02*
X168656667Y-98252381D01*
X168656667Y-97252381D01*
X165032857Y-94921429D02*
X165032857Y-95407143D01*
X165061429Y-95464286D01*
X165090000Y-95492857D01*
X165147143Y-95521429D01*
X165261429Y-95521429D01*
X165318571Y-95492857D01*
X165347143Y-95464286D01*
X165375714Y-95407143D01*
X165375714Y-94921429D01*
X165604285Y-94921429D02*
X165975714Y-94921429D01*
X165775714Y-95150000D01*
X165861428Y-95150000D01*
X165918571Y-95178571D01*
X165947142Y-95207143D01*
X165975714Y-95264286D01*
X165975714Y-95407143D01*
X165947142Y-95464286D01*
X165918571Y-95492857D01*
X165861428Y-95521429D01*
X165690000Y-95521429D01*
X165632857Y-95492857D01*
X165604285Y-95464286D01*
X161990000Y-108412381D02*
X161990000Y-107412381D01*
X162228095Y-107412381D01*
X162370953Y-107460000D01*
X162466191Y-107555238D01*
X162513810Y-107650476D01*
X162561429Y-107840952D01*
X162561429Y-107983810D01*
X162513810Y-108174286D01*
X162466191Y-108269524D01*
X162370953Y-108364762D01*
X162228095Y-108412381D01*
X161990000Y-108412381D01*
X163561429Y-108412381D02*
X163228095Y-107936190D01*
X162990000Y-108412381D02*
X162990000Y-107412381D01*
X163370953Y-107412381D01*
X163466191Y-107460000D01*
X163513810Y-107507619D01*
X163561429Y-107602857D01*
X163561429Y-107745714D01*
X163513810Y-107840952D01*
X163466191Y-107888571D01*
X163370953Y-107936190D01*
X162990000Y-107936190D01*
X163847143Y-107412381D02*
X164180476Y-108412381D01*
X164513810Y-107412381D01*
X164799524Y-107507619D02*
X164847143Y-107460000D01*
X164942381Y-107412381D01*
X165180477Y-107412381D01*
X165275715Y-107460000D01*
X165323334Y-107507619D01*
X165370953Y-107602857D01*
X165370953Y-107698095D01*
X165323334Y-107840952D01*
X164751905Y-108412381D01*
X165370953Y-108412381D01*
X166228096Y-107412381D02*
X166037619Y-107412381D01*
X165942381Y-107460000D01*
X165894762Y-107507619D01*
X165799524Y-107650476D01*
X165751905Y-107840952D01*
X165751905Y-108221905D01*
X165799524Y-108317143D01*
X165847143Y-108364762D01*
X165942381Y-108412381D01*
X166132858Y-108412381D01*
X166228096Y-108364762D01*
X166275715Y-108317143D01*
X166323334Y-108221905D01*
X166323334Y-107983810D01*
X166275715Y-107888571D01*
X166228096Y-107840952D01*
X166132858Y-107793333D01*
X165942381Y-107793333D01*
X165847143Y-107840952D01*
X165799524Y-107888571D01*
X165751905Y-107983810D01*
X166942381Y-107412381D02*
X167037620Y-107412381D01*
X167132858Y-107460000D01*
X167180477Y-107507619D01*
X167228096Y-107602857D01*
X167275715Y-107793333D01*
X167275715Y-108031429D01*
X167228096Y-108221905D01*
X167180477Y-108317143D01*
X167132858Y-108364762D01*
X167037620Y-108412381D01*
X166942381Y-108412381D01*
X166847143Y-108364762D01*
X166799524Y-108317143D01*
X166751905Y-108221905D01*
X166704286Y-108031429D01*
X166704286Y-107793333D01*
X166751905Y-107602857D01*
X166799524Y-107507619D01*
X166847143Y-107460000D01*
X166942381Y-107412381D01*
X168180477Y-107412381D02*
X167704286Y-107412381D01*
X167656667Y-107888571D01*
X167704286Y-107840952D01*
X167799524Y-107793333D01*
X168037620Y-107793333D01*
X168132858Y-107840952D01*
X168180477Y-107888571D01*
X168228096Y-107983810D01*
X168228096Y-108221905D01*
X168180477Y-108317143D01*
X168132858Y-108364762D01*
X168037620Y-108412381D01*
X167799524Y-108412381D01*
X167704286Y-108364762D01*
X167656667Y-108317143D01*
X169132858Y-108412381D02*
X168656667Y-108412381D01*
X168656667Y-107412381D01*
X165032857Y-105081429D02*
X165032857Y-105567143D01*
X165061429Y-105624286D01*
X165090000Y-105652857D01*
X165147143Y-105681429D01*
X165261429Y-105681429D01*
X165318571Y-105652857D01*
X165347143Y-105624286D01*
X165375714Y-105567143D01*
X165375714Y-105081429D01*
X165918571Y-105281429D02*
X165918571Y-105681429D01*
X165775714Y-105052857D02*
X165632857Y-105481429D01*
X166004285Y-105481429D01*
X161990000Y-118572381D02*
X161990000Y-117572381D01*
X162228095Y-117572381D01*
X162370953Y-117620000D01*
X162466191Y-117715238D01*
X162513810Y-117810476D01*
X162561429Y-118000952D01*
X162561429Y-118143810D01*
X162513810Y-118334286D01*
X162466191Y-118429524D01*
X162370953Y-118524762D01*
X162228095Y-118572381D01*
X161990000Y-118572381D01*
X163561429Y-118572381D02*
X163228095Y-118096190D01*
X162990000Y-118572381D02*
X162990000Y-117572381D01*
X163370953Y-117572381D01*
X163466191Y-117620000D01*
X163513810Y-117667619D01*
X163561429Y-117762857D01*
X163561429Y-117905714D01*
X163513810Y-118000952D01*
X163466191Y-118048571D01*
X163370953Y-118096190D01*
X162990000Y-118096190D01*
X163847143Y-117572381D02*
X164180476Y-118572381D01*
X164513810Y-117572381D01*
X164799524Y-117667619D02*
X164847143Y-117620000D01*
X164942381Y-117572381D01*
X165180477Y-117572381D01*
X165275715Y-117620000D01*
X165323334Y-117667619D01*
X165370953Y-117762857D01*
X165370953Y-117858095D01*
X165323334Y-118000952D01*
X164751905Y-118572381D01*
X165370953Y-118572381D01*
X166228096Y-117572381D02*
X166037619Y-117572381D01*
X165942381Y-117620000D01*
X165894762Y-117667619D01*
X165799524Y-117810476D01*
X165751905Y-118000952D01*
X165751905Y-118381905D01*
X165799524Y-118477143D01*
X165847143Y-118524762D01*
X165942381Y-118572381D01*
X166132858Y-118572381D01*
X166228096Y-118524762D01*
X166275715Y-118477143D01*
X166323334Y-118381905D01*
X166323334Y-118143810D01*
X166275715Y-118048571D01*
X166228096Y-118000952D01*
X166132858Y-117953333D01*
X165942381Y-117953333D01*
X165847143Y-118000952D01*
X165799524Y-118048571D01*
X165751905Y-118143810D01*
X166942381Y-117572381D02*
X167037620Y-117572381D01*
X167132858Y-117620000D01*
X167180477Y-117667619D01*
X167228096Y-117762857D01*
X167275715Y-117953333D01*
X167275715Y-118191429D01*
X167228096Y-118381905D01*
X167180477Y-118477143D01*
X167132858Y-118524762D01*
X167037620Y-118572381D01*
X166942381Y-118572381D01*
X166847143Y-118524762D01*
X166799524Y-118477143D01*
X166751905Y-118381905D01*
X166704286Y-118191429D01*
X166704286Y-117953333D01*
X166751905Y-117762857D01*
X166799524Y-117667619D01*
X166847143Y-117620000D01*
X166942381Y-117572381D01*
X168180477Y-117572381D02*
X167704286Y-117572381D01*
X167656667Y-118048571D01*
X167704286Y-118000952D01*
X167799524Y-117953333D01*
X168037620Y-117953333D01*
X168132858Y-118000952D01*
X168180477Y-118048571D01*
X168228096Y-118143810D01*
X168228096Y-118381905D01*
X168180477Y-118477143D01*
X168132858Y-118524762D01*
X168037620Y-118572381D01*
X167799524Y-118572381D01*
X167704286Y-118524762D01*
X167656667Y-118477143D01*
X169132858Y-118572381D02*
X168656667Y-118572381D01*
X168656667Y-117572381D01*
X165032857Y-115241429D02*
X165032857Y-115727143D01*
X165061429Y-115784286D01*
X165090000Y-115812857D01*
X165147143Y-115841429D01*
X165261429Y-115841429D01*
X165318571Y-115812857D01*
X165347143Y-115784286D01*
X165375714Y-115727143D01*
X165375714Y-115241429D01*
X165947142Y-115241429D02*
X165661428Y-115241429D01*
X165632857Y-115527143D01*
X165661428Y-115498571D01*
X165718571Y-115470000D01*
X165861428Y-115470000D01*
X165918571Y-115498571D01*
X165947142Y-115527143D01*
X165975714Y-115584286D01*
X165975714Y-115727143D01*
X165947142Y-115784286D01*
X165918571Y-115812857D01*
X165861428Y-115841429D01*
X165718571Y-115841429D01*
X165661428Y-115812857D01*
X165632857Y-115784286D01*
X133316667Y-122585238D02*
X133316667Y-122109047D01*
X133602381Y-122680476D02*
X132602381Y-122347143D01*
X133602381Y-122013809D01*
X133602381Y-121680476D02*
X132602381Y-121680476D01*
X132602381Y-121299523D01*
X132650000Y-121204285D01*
X132697619Y-121156666D01*
X132792857Y-121109047D01*
X132935714Y-121109047D01*
X133030952Y-121156666D01*
X133078571Y-121204285D01*
X133126190Y-121299523D01*
X133126190Y-121680476D01*
X133602381Y-120156666D02*
X133602381Y-120728095D01*
X133602381Y-120442381D02*
X132602381Y-120442381D01*
X132745238Y-120537619D01*
X132840476Y-120632857D01*
X132888095Y-120728095D01*
X133602381Y-119204285D02*
X133602381Y-119775714D01*
X133602381Y-119490000D02*
X132602381Y-119490000D01*
X132745238Y-119585238D01*
X132840476Y-119680476D01*
X132888095Y-119775714D01*
X133602381Y-118251904D02*
X133602381Y-118823333D01*
X133602381Y-118537619D02*
X132602381Y-118537619D01*
X132745238Y-118632857D01*
X132840476Y-118728095D01*
X132888095Y-118823333D01*
X132602381Y-117918571D02*
X132602381Y-117251904D01*
X133602381Y-117680476D01*
X132602381Y-116394761D02*
X132602381Y-116870952D01*
X133078571Y-116918571D01*
X133030952Y-116870952D01*
X132983333Y-116775714D01*
X132983333Y-116537618D01*
X133030952Y-116442380D01*
X133078571Y-116394761D01*
X133173810Y-116347142D01*
X133411905Y-116347142D01*
X133507143Y-116394761D01*
X133554762Y-116442380D01*
X133602381Y-116537618D01*
X133602381Y-116775714D01*
X133554762Y-116870952D01*
X133507143Y-116918571D01*
X132602381Y-115728095D02*
X132602381Y-115632856D01*
X132650000Y-115537618D01*
X132697619Y-115489999D01*
X132792857Y-115442380D01*
X132983333Y-115394761D01*
X133221429Y-115394761D01*
X133411905Y-115442380D01*
X133507143Y-115489999D01*
X133554762Y-115537618D01*
X133602381Y-115632856D01*
X133602381Y-115728095D01*
X133554762Y-115823333D01*
X133507143Y-115870952D01*
X133411905Y-115918571D01*
X133221429Y-115966190D01*
X132983333Y-115966190D01*
X132792857Y-115918571D01*
X132697619Y-115870952D01*
X132650000Y-115823333D01*
X132602381Y-115728095D01*
D13*
X128211905Y-119599524D02*
X128859524Y-119599524D01*
X128935714Y-119561429D01*
X128973810Y-119523333D01*
X129011905Y-119447143D01*
X129011905Y-119294762D01*
X128973810Y-119218571D01*
X128935714Y-119180476D01*
X128859524Y-119142381D01*
X128211905Y-119142381D01*
X128211905Y-118418572D02*
X128211905Y-118570953D01*
X128250000Y-118647143D01*
X128288095Y-118685238D01*
X128402381Y-118761429D01*
X128554762Y-118799524D01*
X128859524Y-118799524D01*
X128935714Y-118761429D01*
X128973810Y-118723334D01*
X129011905Y-118647143D01*
X129011905Y-118494762D01*
X128973810Y-118418572D01*
X128935714Y-118380476D01*
X128859524Y-118342381D01*
X128669048Y-118342381D01*
X128592857Y-118380476D01*
X128554762Y-118418572D01*
X128516667Y-118494762D01*
X128516667Y-118647143D01*
X128554762Y-118723334D01*
X128592857Y-118761429D01*
X128669048Y-118799524D01*
D11*
X161990000Y-93172381D02*
X161990000Y-92172381D01*
X162228095Y-92172381D01*
X162370953Y-92220000D01*
X162466191Y-92315238D01*
X162513810Y-92410476D01*
X162561429Y-92600952D01*
X162561429Y-92743810D01*
X162513810Y-92934286D01*
X162466191Y-93029524D01*
X162370953Y-93124762D01*
X162228095Y-93172381D01*
X161990000Y-93172381D01*
X163561429Y-93172381D02*
X163228095Y-92696190D01*
X162990000Y-93172381D02*
X162990000Y-92172381D01*
X163370953Y-92172381D01*
X163466191Y-92220000D01*
X163513810Y-92267619D01*
X163561429Y-92362857D01*
X163561429Y-92505714D01*
X163513810Y-92600952D01*
X163466191Y-92648571D01*
X163370953Y-92696190D01*
X162990000Y-92696190D01*
X163847143Y-92172381D02*
X164180476Y-93172381D01*
X164513810Y-92172381D01*
X164799524Y-92267619D02*
X164847143Y-92220000D01*
X164942381Y-92172381D01*
X165180477Y-92172381D01*
X165275715Y-92220000D01*
X165323334Y-92267619D01*
X165370953Y-92362857D01*
X165370953Y-92458095D01*
X165323334Y-92600952D01*
X164751905Y-93172381D01*
X165370953Y-93172381D01*
X166228096Y-92172381D02*
X166037619Y-92172381D01*
X165942381Y-92220000D01*
X165894762Y-92267619D01*
X165799524Y-92410476D01*
X165751905Y-92600952D01*
X165751905Y-92981905D01*
X165799524Y-93077143D01*
X165847143Y-93124762D01*
X165942381Y-93172381D01*
X166132858Y-93172381D01*
X166228096Y-93124762D01*
X166275715Y-93077143D01*
X166323334Y-92981905D01*
X166323334Y-92743810D01*
X166275715Y-92648571D01*
X166228096Y-92600952D01*
X166132858Y-92553333D01*
X165942381Y-92553333D01*
X165847143Y-92600952D01*
X165799524Y-92648571D01*
X165751905Y-92743810D01*
X166942381Y-92172381D02*
X167037620Y-92172381D01*
X167132858Y-92220000D01*
X167180477Y-92267619D01*
X167228096Y-92362857D01*
X167275715Y-92553333D01*
X167275715Y-92791429D01*
X167228096Y-92981905D01*
X167180477Y-93077143D01*
X167132858Y-93124762D01*
X167037620Y-93172381D01*
X166942381Y-93172381D01*
X166847143Y-93124762D01*
X166799524Y-93077143D01*
X166751905Y-92981905D01*
X166704286Y-92791429D01*
X166704286Y-92553333D01*
X166751905Y-92362857D01*
X166799524Y-92267619D01*
X166847143Y-92220000D01*
X166942381Y-92172381D01*
X168180477Y-92172381D02*
X167704286Y-92172381D01*
X167656667Y-92648571D01*
X167704286Y-92600952D01*
X167799524Y-92553333D01*
X168037620Y-92553333D01*
X168132858Y-92600952D01*
X168180477Y-92648571D01*
X168228096Y-92743810D01*
X168228096Y-92981905D01*
X168180477Y-93077143D01*
X168132858Y-93124762D01*
X168037620Y-93172381D01*
X167799524Y-93172381D01*
X167704286Y-93124762D01*
X167656667Y-93077143D01*
X169132858Y-93172381D02*
X168656667Y-93172381D01*
X168656667Y-92172381D01*
X165032857Y-89841429D02*
X165032857Y-90327143D01*
X165061429Y-90384286D01*
X165090000Y-90412857D01*
X165147143Y-90441429D01*
X165261429Y-90441429D01*
X165318571Y-90412857D01*
X165347143Y-90384286D01*
X165375714Y-90327143D01*
X165375714Y-89841429D01*
X165604285Y-89841429D02*
X166004285Y-89841429D01*
X165747142Y-90441429D01*
X161990000Y-103332381D02*
X161990000Y-102332381D01*
X162228095Y-102332381D01*
X162370953Y-102380000D01*
X162466191Y-102475238D01*
X162513810Y-102570476D01*
X162561429Y-102760952D01*
X162561429Y-102903810D01*
X162513810Y-103094286D01*
X162466191Y-103189524D01*
X162370953Y-103284762D01*
X162228095Y-103332381D01*
X161990000Y-103332381D01*
X163561429Y-103332381D02*
X163228095Y-102856190D01*
X162990000Y-103332381D02*
X162990000Y-102332381D01*
X163370953Y-102332381D01*
X163466191Y-102380000D01*
X163513810Y-102427619D01*
X163561429Y-102522857D01*
X163561429Y-102665714D01*
X163513810Y-102760952D01*
X163466191Y-102808571D01*
X163370953Y-102856190D01*
X162990000Y-102856190D01*
X163847143Y-102332381D02*
X164180476Y-103332381D01*
X164513810Y-102332381D01*
X164799524Y-102427619D02*
X164847143Y-102380000D01*
X164942381Y-102332381D01*
X165180477Y-102332381D01*
X165275715Y-102380000D01*
X165323334Y-102427619D01*
X165370953Y-102522857D01*
X165370953Y-102618095D01*
X165323334Y-102760952D01*
X164751905Y-103332381D01*
X165370953Y-103332381D01*
X166228096Y-102332381D02*
X166037619Y-102332381D01*
X165942381Y-102380000D01*
X165894762Y-102427619D01*
X165799524Y-102570476D01*
X165751905Y-102760952D01*
X165751905Y-103141905D01*
X165799524Y-103237143D01*
X165847143Y-103284762D01*
X165942381Y-103332381D01*
X166132858Y-103332381D01*
X166228096Y-103284762D01*
X166275715Y-103237143D01*
X166323334Y-103141905D01*
X166323334Y-102903810D01*
X166275715Y-102808571D01*
X166228096Y-102760952D01*
X166132858Y-102713333D01*
X165942381Y-102713333D01*
X165847143Y-102760952D01*
X165799524Y-102808571D01*
X165751905Y-102903810D01*
X166942381Y-102332381D02*
X167037620Y-102332381D01*
X167132858Y-102380000D01*
X167180477Y-102427619D01*
X167228096Y-102522857D01*
X167275715Y-102713333D01*
X167275715Y-102951429D01*
X167228096Y-103141905D01*
X167180477Y-103237143D01*
X167132858Y-103284762D01*
X167037620Y-103332381D01*
X166942381Y-103332381D01*
X166847143Y-103284762D01*
X166799524Y-103237143D01*
X166751905Y-103141905D01*
X166704286Y-102951429D01*
X166704286Y-102713333D01*
X166751905Y-102522857D01*
X166799524Y-102427619D01*
X166847143Y-102380000D01*
X166942381Y-102332381D01*
X168180477Y-102332381D02*
X167704286Y-102332381D01*
X167656667Y-102808571D01*
X167704286Y-102760952D01*
X167799524Y-102713333D01*
X168037620Y-102713333D01*
X168132858Y-102760952D01*
X168180477Y-102808571D01*
X168228096Y-102903810D01*
X168228096Y-103141905D01*
X168180477Y-103237143D01*
X168132858Y-103284762D01*
X168037620Y-103332381D01*
X167799524Y-103332381D01*
X167704286Y-103284762D01*
X167656667Y-103237143D01*
X169132858Y-103332381D02*
X168656667Y-103332381D01*
X168656667Y-102332381D01*
X165032857Y-100001429D02*
X165032857Y-100487143D01*
X165061429Y-100544286D01*
X165090000Y-100572857D01*
X165147143Y-100601429D01*
X165261429Y-100601429D01*
X165318571Y-100572857D01*
X165347143Y-100544286D01*
X165375714Y-100487143D01*
X165375714Y-100001429D01*
X165747142Y-100258571D02*
X165690000Y-100230000D01*
X165661428Y-100201429D01*
X165632857Y-100144286D01*
X165632857Y-100115714D01*
X165661428Y-100058571D01*
X165690000Y-100030000D01*
X165747142Y-100001429D01*
X165861428Y-100001429D01*
X165918571Y-100030000D01*
X165947142Y-100058571D01*
X165975714Y-100115714D01*
X165975714Y-100144286D01*
X165947142Y-100201429D01*
X165918571Y-100230000D01*
X165861428Y-100258571D01*
X165747142Y-100258571D01*
X165690000Y-100287143D01*
X165661428Y-100315714D01*
X165632857Y-100372857D01*
X165632857Y-100487143D01*
X165661428Y-100544286D01*
X165690000Y-100572857D01*
X165747142Y-100601429D01*
X165861428Y-100601429D01*
X165918571Y-100572857D01*
X165947142Y-100544286D01*
X165975714Y-100487143D01*
X165975714Y-100372857D01*
X165947142Y-100315714D01*
X165918571Y-100287143D01*
X165861428Y-100258571D01*
X161990000Y-113492381D02*
X161990000Y-112492381D01*
X162228095Y-112492381D01*
X162370953Y-112540000D01*
X162466191Y-112635238D01*
X162513810Y-112730476D01*
X162561429Y-112920952D01*
X162561429Y-113063810D01*
X162513810Y-113254286D01*
X162466191Y-113349524D01*
X162370953Y-113444762D01*
X162228095Y-113492381D01*
X161990000Y-113492381D01*
X163561429Y-113492381D02*
X163228095Y-113016190D01*
X162990000Y-113492381D02*
X162990000Y-112492381D01*
X163370953Y-112492381D01*
X163466191Y-112540000D01*
X163513810Y-112587619D01*
X163561429Y-112682857D01*
X163561429Y-112825714D01*
X163513810Y-112920952D01*
X163466191Y-112968571D01*
X163370953Y-113016190D01*
X162990000Y-113016190D01*
X163847143Y-112492381D02*
X164180476Y-113492381D01*
X164513810Y-112492381D01*
X164799524Y-112587619D02*
X164847143Y-112540000D01*
X164942381Y-112492381D01*
X165180477Y-112492381D01*
X165275715Y-112540000D01*
X165323334Y-112587619D01*
X165370953Y-112682857D01*
X165370953Y-112778095D01*
X165323334Y-112920952D01*
X164751905Y-113492381D01*
X165370953Y-113492381D01*
X166228096Y-112492381D02*
X166037619Y-112492381D01*
X165942381Y-112540000D01*
X165894762Y-112587619D01*
X165799524Y-112730476D01*
X165751905Y-112920952D01*
X165751905Y-113301905D01*
X165799524Y-113397143D01*
X165847143Y-113444762D01*
X165942381Y-113492381D01*
X166132858Y-113492381D01*
X166228096Y-113444762D01*
X166275715Y-113397143D01*
X166323334Y-113301905D01*
X166323334Y-113063810D01*
X166275715Y-112968571D01*
X166228096Y-112920952D01*
X166132858Y-112873333D01*
X165942381Y-112873333D01*
X165847143Y-112920952D01*
X165799524Y-112968571D01*
X165751905Y-113063810D01*
X166942381Y-112492381D02*
X167037620Y-112492381D01*
X167132858Y-112540000D01*
X167180477Y-112587619D01*
X167228096Y-112682857D01*
X167275715Y-112873333D01*
X167275715Y-113111429D01*
X167228096Y-113301905D01*
X167180477Y-113397143D01*
X167132858Y-113444762D01*
X167037620Y-113492381D01*
X166942381Y-113492381D01*
X166847143Y-113444762D01*
X166799524Y-113397143D01*
X166751905Y-113301905D01*
X166704286Y-113111429D01*
X166704286Y-112873333D01*
X166751905Y-112682857D01*
X166799524Y-112587619D01*
X166847143Y-112540000D01*
X166942381Y-112492381D01*
X168180477Y-112492381D02*
X167704286Y-112492381D01*
X167656667Y-112968571D01*
X167704286Y-112920952D01*
X167799524Y-112873333D01*
X168037620Y-112873333D01*
X168132858Y-112920952D01*
X168180477Y-112968571D01*
X168228096Y-113063810D01*
X168228096Y-113301905D01*
X168180477Y-113397143D01*
X168132858Y-113444762D01*
X168037620Y-113492381D01*
X167799524Y-113492381D01*
X167704286Y-113444762D01*
X167656667Y-113397143D01*
X169132858Y-113492381D02*
X168656667Y-113492381D01*
X168656667Y-112492381D01*
X165032857Y-110161429D02*
X165032857Y-110647143D01*
X165061429Y-110704286D01*
X165090000Y-110732857D01*
X165147143Y-110761429D01*
X165261429Y-110761429D01*
X165318571Y-110732857D01*
X165347143Y-110704286D01*
X165375714Y-110647143D01*
X165375714Y-110161429D01*
X165690000Y-110761429D02*
X165804285Y-110761429D01*
X165861428Y-110732857D01*
X165890000Y-110704286D01*
X165947142Y-110618571D01*
X165975714Y-110504286D01*
X165975714Y-110275714D01*
X165947142Y-110218571D01*
X165918571Y-110190000D01*
X165861428Y-110161429D01*
X165747142Y-110161429D01*
X165690000Y-110190000D01*
X165661428Y-110218571D01*
X165632857Y-110275714D01*
X165632857Y-110418571D01*
X165661428Y-110475714D01*
X165690000Y-110504286D01*
X165747142Y-110532857D01*
X165861428Y-110532857D01*
X165918571Y-110504286D01*
X165947142Y-110475714D01*
X165975714Y-110418571D01*
X162015400Y-123652381D02*
X162015400Y-122652381D01*
X162253495Y-122652381D01*
X162396353Y-122700000D01*
X162491591Y-122795238D01*
X162539210Y-122890476D01*
X162586829Y-123080952D01*
X162586829Y-123223810D01*
X162539210Y-123414286D01*
X162491591Y-123509524D01*
X162396353Y-123604762D01*
X162253495Y-123652381D01*
X162015400Y-123652381D01*
X163586829Y-123652381D02*
X163253495Y-123176190D01*
X163015400Y-123652381D02*
X163015400Y-122652381D01*
X163396353Y-122652381D01*
X163491591Y-122700000D01*
X163539210Y-122747619D01*
X163586829Y-122842857D01*
X163586829Y-122985714D01*
X163539210Y-123080952D01*
X163491591Y-123128571D01*
X163396353Y-123176190D01*
X163015400Y-123176190D01*
X163872543Y-122652381D02*
X164205876Y-123652381D01*
X164539210Y-122652381D01*
X164824924Y-122747619D02*
X164872543Y-122700000D01*
X164967781Y-122652381D01*
X165205877Y-122652381D01*
X165301115Y-122700000D01*
X165348734Y-122747619D01*
X165396353Y-122842857D01*
X165396353Y-122938095D01*
X165348734Y-123080952D01*
X164777305Y-123652381D01*
X165396353Y-123652381D01*
X166253496Y-122652381D02*
X166063019Y-122652381D01*
X165967781Y-122700000D01*
X165920162Y-122747619D01*
X165824924Y-122890476D01*
X165777305Y-123080952D01*
X165777305Y-123461905D01*
X165824924Y-123557143D01*
X165872543Y-123604762D01*
X165967781Y-123652381D01*
X166158258Y-123652381D01*
X166253496Y-123604762D01*
X166301115Y-123557143D01*
X166348734Y-123461905D01*
X166348734Y-123223810D01*
X166301115Y-123128571D01*
X166253496Y-123080952D01*
X166158258Y-123033333D01*
X165967781Y-123033333D01*
X165872543Y-123080952D01*
X165824924Y-123128571D01*
X165777305Y-123223810D01*
X166967781Y-122652381D02*
X167063020Y-122652381D01*
X167158258Y-122700000D01*
X167205877Y-122747619D01*
X167253496Y-122842857D01*
X167301115Y-123033333D01*
X167301115Y-123271429D01*
X167253496Y-123461905D01*
X167205877Y-123557143D01*
X167158258Y-123604762D01*
X167063020Y-123652381D01*
X166967781Y-123652381D01*
X166872543Y-123604762D01*
X166824924Y-123557143D01*
X166777305Y-123461905D01*
X166729686Y-123271429D01*
X166729686Y-123033333D01*
X166777305Y-122842857D01*
X166824924Y-122747619D01*
X166872543Y-122700000D01*
X166967781Y-122652381D01*
X168205877Y-122652381D02*
X167729686Y-122652381D01*
X167682067Y-123128571D01*
X167729686Y-123080952D01*
X167824924Y-123033333D01*
X168063020Y-123033333D01*
X168158258Y-123080952D01*
X168205877Y-123128571D01*
X168253496Y-123223810D01*
X168253496Y-123461905D01*
X168205877Y-123557143D01*
X168158258Y-123604762D01*
X168063020Y-123652381D01*
X167824924Y-123652381D01*
X167729686Y-123604762D01*
X167682067Y-123557143D01*
X169158258Y-123652381D02*
X168682067Y-123652381D01*
X168682067Y-122652381D01*
X164772543Y-120321429D02*
X164772543Y-120807143D01*
X164801115Y-120864286D01*
X164829686Y-120892857D01*
X164886829Y-120921429D01*
X165001115Y-120921429D01*
X165058257Y-120892857D01*
X165086829Y-120864286D01*
X165115400Y-120807143D01*
X165115400Y-120321429D01*
X165715400Y-120921429D02*
X165372543Y-120921429D01*
X165543971Y-120921429D02*
X165543971Y-120321429D01*
X165486828Y-120407143D01*
X165429686Y-120464286D01*
X165372543Y-120492857D01*
X166086829Y-120321429D02*
X166143972Y-120321429D01*
X166201115Y-120350000D01*
X166229686Y-120378571D01*
X166258257Y-120435714D01*
X166286829Y-120550000D01*
X166286829Y-120692857D01*
X166258257Y-120807143D01*
X166229686Y-120864286D01*
X166201115Y-120892857D01*
X166143972Y-120921429D01*
X166086829Y-120921429D01*
X166029686Y-120892857D01*
X166001115Y-120864286D01*
X165972543Y-120807143D01*
X165943972Y-120692857D01*
X165943972Y-120550000D01*
X165972543Y-120435714D01*
X166001115Y-120378571D01*
X166029686Y-120350000D01*
X166086829Y-120321429D01*
M02*
