M48
;DRILL file {KiCad 4.0.5} date Thursday, 11 May 2017 'PMt' 15:34:49
;FORMAT={-:-/ absolute / metric / decimal}
FMAT,2
METRIC,TZ
T1C0.250
T2C0.300
T3C0.400
T4C1.000
T5C1.016
T6C3.175
%
G90
G05
M71
T1
X139.281Y-100.597
X139.827Y-102.362
X140.716Y-101.6
X141.224Y-106.172
X153.416Y-94.313
X153.543Y-104.14
X155.575Y-107.95
X155.575Y-113.411
X155.575Y-118.618
X155.946Y-97.79
X156.21Y-103.124
X158.252Y-117.183
X160.528Y-93.063
X161.1Y-111.15
X161.15Y-116.35
X161.2Y-96.
X161.2Y-121.4
X161.25Y-90.8
X161.4Y-106.035
X161.45Y-100.955
X161.544Y-85.831
X163.34Y-86.848
X163.34Y-96.881
X163.34Y-102.101
X163.34Y-107.117
X163.34Y-112.222
X163.34Y-117.366
X163.365Y-122.535
X163.478Y-92.231
X165.354Y-88.011
X166.008Y-93.299
X166.116Y-108.204
X166.243Y-98.298
X166.243Y-103.124
X166.479Y-113.556
X166.479Y-118.636
T2
X101.6Y-88.9
X101.6Y-101.6
X101.6Y-114.3
X116.84Y-88.9
X116.84Y-101.6
X116.84Y-114.3
X123.825Y-120.015
X133.35Y-97.79
X133.985Y-115.57
X136.525Y-81.915
X139.7Y-121.285
X142.24Y-100.965
X158.75Y-78.74
T3
X130.556Y-111.252
X139.7Y-87.884
X142.4Y-118.
X143.51Y-113.665
X143.51Y-116.84
X145.35Y-123.55
X145.796Y-91.44
X146.05Y-97.155
X146.05Y-101.6
X146.05Y-107.315
X146.05Y-110.49
X146.05Y-116.84
X151.13Y-102.87
X152.54Y-108.28
X153.162Y-89.027
X153.53Y-113.983
X153.619Y-118.643
X153.924Y-103.124
X154.153Y-98.044
X154.94Y-87.503
X158.344Y-106.667
X158.458Y-112.179
X158.496Y-87.122
X158.572Y-101.892
X158.598Y-122.199
X159.004Y-96.52
X170.2Y-84.05
X170.2Y-86.1
X170.2Y-89.15
X170.2Y-91.15
X170.2Y-94.2
X170.2Y-96.2
X170.2Y-99.35
X170.2Y-101.3
X170.2Y-104.4
X170.2Y-106.4
X170.2Y-109.45
X170.2Y-111.45
X170.2Y-114.55
X170.2Y-116.55
X170.2Y-119.65
X170.2Y-121.7
X170.2Y-124.05
T4
X175.26Y-83.82
X175.26Y-86.36
X175.26Y-88.9
X175.26Y-91.44
X175.26Y-93.98
X175.26Y-96.52
X175.26Y-99.06
X175.26Y-101.6
X175.26Y-104.14
X175.26Y-106.68
X175.26Y-109.22
X175.26Y-111.76
X175.26Y-114.3
X175.26Y-116.84
X175.26Y-119.38
X175.26Y-121.92
X180.34Y-83.82
X180.34Y-86.36
X180.34Y-88.9
X180.34Y-91.44
X180.34Y-93.98
X180.34Y-96.52
X180.34Y-99.06
X180.34Y-101.6
X180.34Y-104.14
X180.34Y-106.68
X180.34Y-109.22
X180.34Y-111.76
X180.34Y-114.3
X180.34Y-116.84
X180.34Y-119.38
X180.34Y-121.92
T5
X116.581Y-78.75
X119.121Y-78.75
X121.661Y-78.75
X124.201Y-78.75
X125.725Y-127.01
X126.741Y-78.75
X128.265Y-127.01
X129.281Y-78.75
X130.805Y-127.01
X131.821Y-78.75
X133.345Y-127.01
X134.361Y-78.75
X135.885Y-127.01
X138.425Y-78.75
X138.425Y-127.01
X140.965Y-78.75
X143.505Y-78.75
X143.505Y-127.01
X146.045Y-78.75
X146.045Y-127.01
X148.585Y-78.75
X148.585Y-127.01
X151.125Y-78.75
X151.125Y-127.01
X153.665Y-78.75
X153.665Y-127.01
X156.205Y-78.75
X156.205Y-127.01
X158.745Y-127.01
X161.285Y-78.75
X161.285Y-127.01
X163.825Y-78.75
X166.365Y-78.75
X166.365Y-127.01
X168.905Y-78.75
X168.905Y-127.01
X171.445Y-78.75
X171.445Y-127.01
X173.985Y-78.75
X173.985Y-127.01
X176.525Y-78.75
X176.525Y-127.01
X179.065Y-78.75
X179.065Y-127.01
X181.605Y-127.01
X184.145Y-127.01
X186.685Y-78.75
X186.685Y-81.29
X186.685Y-83.83
X186.685Y-86.37
X186.685Y-88.91
X186.685Y-91.45
X186.685Y-93.99
X186.685Y-96.53
X186.685Y-99.07
X186.685Y-101.61
X186.685Y-104.15
X186.685Y-106.69
X186.685Y-109.23
X186.685Y-111.77
X186.685Y-114.31
X186.685Y-116.85
X186.685Y-119.39
X186.685Y-121.93
X189.225Y-78.75
X189.225Y-81.29
X189.225Y-83.83
X189.225Y-86.37
X189.225Y-88.91
X189.225Y-91.45
X189.225Y-93.99
X189.225Y-96.53
X189.225Y-99.07
X189.225Y-101.61
X189.225Y-104.15
X189.225Y-106.69
X189.225Y-109.23
X189.225Y-111.77
X189.225Y-114.31
X189.225Y-116.85
X189.225Y-119.39
X189.225Y-121.93
T6
X106.675Y-127.01
X107.945Y-78.75
X182.875Y-78.75
X189.225Y-127.01
T0
M30
